<svg id="Layer_1" data-name="Layer 1" xmlns="http://www.w3.org/2000/svg" xmlns:xlink="http://www.w3.org/1999/xlink" viewBox="0 0 334.11 308.49"><defs><style>.cls-1{fill:none;}.cls-2{fill:#fff;}.cls-3{fill:url(#linear-gradient);}.cls-4{clip-path:url(#clip-path);}.cls-5{fill:#faf9fa;}.cls-6,.cls-9{isolation:isolate;fill:#005777;font-family:Poppins-SemiBold, Poppins;font-weight:600;}.cls-6{font-size:20px;}.cls-7{fill:url(#linear-gradient-2);}.cls-8{clip-path:url(#clip-path-2);}.cls-9{font-size:22px;}.cls-10{fill:url(#linear-gradient-3);}.cls-11{clip-path:url(#clip-path-3);}</style><linearGradient id="linear-gradient" x1="-2532.2" y1="701.37" x2="-2530.47" y2="702.86" gradientTransform="matrix(196.22, 0, 0, -196.21, 496739.12, 138009.8)" gradientUnits="userSpaceOnUse"><stop offset="0" stop-color="#f7931e"/><stop offset="0.99" stop-color="#e07d2b"/></linearGradient><clipPath id="clip-path" transform="translate(-9.7 -7.67)"><path class="cls-1" d="M190.5,178.68a13,13,0,0,0,18.4,0h0l63.5-63.5a13,13,0,0,0,0-18.4L208.9,33.29a13,13,0,0,0-18.4,0h0L127,96.79a13,13,0,0,0,0,18.4h0Z"/></clipPath><linearGradient id="linear-gradient-2" x1="-2623.8" y1="701.14" x2="-2622.08" y2="702.63" gradientTransform="matrix(196.22, 0, 0, -196.21, 514699.96, 138121.29)" xlink:href="#linear-gradient"/><clipPath id="clip-path-2" transform="translate(-9.7 -7.67)"><path class="cls-1" d="M236.17,289.87a13,13,0,0,0,18.4,0h0l63.5-63.5a13,13,0,0,0,0-18.4l-63.5-63.5a13,13,0,0,0-18.4,0h0L172.67,208a13,13,0,0,0,0,18.4h0Z"/></clipPath><linearGradient id="linear-gradient-3" x1="-2347.08" y1="701.84" x2="-2345.36" y2="703.33" gradientTransform="matrix(196.22, 0, 0, -196.21, 460428.86, 138074.98)" xlink:href="#linear-gradient"/><clipPath id="clip-path-3" transform="translate(-9.7 -7.67)"><path class="cls-1" d="M98.21,244.26a13,13,0,0,0,18.4,0h0l63.5-63.5a13,13,0,0,0,0-18.4l-63.5-63.5a13,13,0,0,0-18.4,0h0l-63.5,63.5a13,13,0,0,0,0,18.4h0Z"/></clipPath></defs><path class="cls-2" d="M188.27,200.1a16.72,16.72,0,0,0,23.6,0l81.4-81.4a16.72,16.72,0,0,0,0-23.6l-81.4-81.4a16.72,16.72,0,0,0-23.6,0l-81.4,81.4a16.6,16.6,0,0,0,0,23.5h0Z" transform="translate(-9.7 -7.67)"/><path class="cls-3" d="M188.27,199a16.72,16.72,0,0,0,23.6,0l81.4-81.4a16.72,16.72,0,0,0,0-23.6l-81.4-81.4a16.72,16.72,0,0,0-23.6,0L106.87,94a16.6,16.6,0,0,0,0,23.5h0Z" transform="translate(-9.7 -7.67)"/><g class="cls-4"><path class="cls-5" d="M190.5,178.68a13,13,0,0,0,18.4,0h0l63.5-63.5a13,13,0,0,0,0-18.4L208.9,33.29a13,13,0,0,0-18.4,0h0L127,96.79a13,13,0,0,0,0,18.4h0Z" transform="translate(-9.7 -7.67)"/></g><text class="cls-6" transform="translate(180.52 74.33)">10+</text><text class="cls-6" transform="translate(153.27 104.33)">Rewards</text><path class="cls-2" d="M233.94,311.28a16.72,16.72,0,0,0,23.6,0l81.4-81.4a16.72,16.72,0,0,0,0-23.6l-81.4-81.4a16.72,16.72,0,0,0-23.6,0l-81.4,81.4a16.6,16.6,0,0,0,0,23.5h0Z" transform="translate(-9.7 -7.67)"/><path class="cls-7" d="M233.94,310.13a16.72,16.72,0,0,0,23.6,0l81.4-81.4a16.72,16.72,0,0,0,0-23.6l-81.4-81.4a16.72,16.72,0,0,0-23.6,0l-81.4,81.4a16.6,16.6,0,0,0,0,23.5h0Z" transform="translate(-9.7 -7.67)"/><g class="cls-8"><path class="cls-5" d="M236.17,289.87a13,13,0,0,0,18.4,0h0l63.5-63.5a13,13,0,0,0,0-18.4l-63.5-63.5a13,13,0,0,0-18.4,0h0L172.67,208a13,13,0,0,0,0,18.4h0Z" transform="translate(-9.7 -7.67)"/></g><text class="cls-9" transform="translate(217.52 199.33)">25+</text><text class="cls-9" transform="translate(193.89 232.33)">Surveys</text><path class="cls-10" d="M96,264.52a16.72,16.72,0,0,0,23.6,0l81.4-81.4a16.72,16.72,0,0,0,0-23.6l-81.4-81.4a16.72,16.72,0,0,0-23.6,0l-81.4,81.4a16.6,16.6,0,0,0,0,23.5h0Z" transform="translate(-9.7 -7.67)"/><g class="cls-11"><path class="cls-5" d="M98.21,244.26a13,13,0,0,0,18.4,0h0l63.5-63.5a13,13,0,0,0,0-18.4l-63.5-63.5a13,13,0,0,0-18.4,0h0l-63.5,63.5a13,13,0,0,0,0,18.4h0Z" transform="translate(-9.7 -7.67)"/></g><text class="cls-9" transform="translate(78.73 152.33)">50+</text><text class="cls-9" transform="translate(61.45 185.33)">Clients</text></svg>