<?xml version="1.0" encoding="utf-8"?>
<!-- Generator: Adobe Illustrator 25.1.0, SVG Export Plug-In . SVG Version: 6.00 Build 0)  -->
<svg version="1.1" id="Layer_1" xmlns="http://www.w3.org/2000/svg" xmlns:xlink="http://www.w3.org/1999/xlink" x="0px" y="0px"
	 viewBox="0 0 1920 535" style="enable-background:new 0 0 1920 535;" xml:space="preserve">
<style type="text/css">
	.st0{fill:#005777;}
	.st1{opacity:0.3;}
	.st2{filter:url(#Rectangle_81);}
	.st3{fill:none;stroke:#FFFFFF;stroke-width:2;}
	.st4{filter:url(#Rectangle_84);}
	.st5{filter:url(#Rectangle_85);}
	.st6{filter:url(#Rectangle_81-2);}
	.st7{filter:url(#Rectangle_84-2);}
	.st8{filter:url(#Rectangle_85-2);}
</style>
<filter  filterUnits="userSpaceOnUse" height="86.241" id="Rectangle_85-2" width="86.241" x="0" y="273.513">
	<feOffset  dy="3" input="SourceAlpha"></feOffset>
	<feGaussianBlur  result="blur-6" stdDeviation="3"></feGaussianBlur>
	<feFlood  flood-opacity="0.161"></feFlood>
	<feComposite  in2="blur-6" operator="in"></feComposite>
	<feComposite  in="SourceGraphic" operator="over"></feComposite>
</filter>
<filter  filterUnits="userSpaceOnUse" height="86.241" id="Rectangle_85" width="86.241" x="1851.759" y="273.513">
	<feOffset  dy="3" input="SourceAlpha"></feOffset>
	<feGaussianBlur  result="blur-3" stdDeviation="3"></feGaussianBlur>
	<feFlood  flood-opacity="0.161"></feFlood>
	<feComposite  in2="blur-3" operator="in"></feComposite>
	<feComposite  in="SourceGraphic" operator="over"></feComposite>
</filter>
<filter  filterUnits="userSpaceOnUse" height="86.241" id="Rectangle_84-2" width="86.241" x="42.309" y="227.56">
	<feOffset  dy="3" input="SourceAlpha"></feOffset>
	<feGaussianBlur  result="blur-5" stdDeviation="3"></feGaussianBlur>
	<feFlood  flood-opacity="0.161"></feFlood>
	<feComposite  in2="blur-5" operator="in"></feComposite>
	<feComposite  in="SourceGraphic" operator="over"></feComposite>
</filter>
<filter  filterUnits="userSpaceOnUse" height="86.241" id="Rectangle_84" width="86.241" x="1809.45" y="227.56">
	<feOffset  dy="3" input="SourceAlpha"></feOffset>
	<feGaussianBlur  result="blur-2" stdDeviation="3"></feGaussianBlur>
	<feFlood  flood-opacity="0.161"></feFlood>
	<feComposite  in2="blur-2" operator="in"></feComposite>
	<feComposite  in="SourceGraphic" operator="over"></feComposite>
</filter>
<filter  filterUnits="userSpaceOnUse" height="86.241" id="Rectangle_81-2" width="86.241" x="0" y="181.754">
	<feOffset  dy="3" input="SourceAlpha"></feOffset>
	<feGaussianBlur  result="blur-4" stdDeviation="3"></feGaussianBlur>
	<feFlood  flood-opacity="0.161"></feFlood>
	<feComposite  in2="blur-4" operator="in"></feComposite>
	<feComposite  in="SourceGraphic" operator="over"></feComposite>
</filter>
<filter  filterUnits="userSpaceOnUse" height="86.241" id="Rectangle_81" width="86.241" x="1851.759" y="181.754">
	<feOffset  dy="3" input="SourceAlpha"></feOffset>
	<feGaussianBlur  result="blur" stdDeviation="3"></feGaussianBlur>
	<feFlood  flood-opacity="0.161"></feFlood>
	<feComposite  in2="blur" operator="in"></feComposite>
	<feComposite  in="SourceGraphic" operator="over"></feComposite>
</filter>
<g id="Group_2169" transform="translate(9 -1799)">
	<rect id="Rectangle_12" x="-9" y="1799" class="st0" width="1920" height="535"/>
	<g id="Group_1629" transform="translate(205.611 -1001.665)" class="st1">
		<g transform="matrix(1, 0, 0, 1, -214.61, 2800.67)" class="st2">
			<g id="Rectangle_81-3_1_" transform="translate(1894.88 187.75) rotate(45)">
				
					<rect x="-5.4" y="7.4" transform="matrix(2.535181e-06 1 -1 2.535181e-06 48.2539 12.7258)" class="st3" width="46.3" height="46.3"/>
			</g>
		</g>
		<g transform="matrix(1, 0, 0, 1, -214.61, 2800.67)" class="st4">
			<g id="Rectangle_84-3_1_" transform="translate(1852.57 233.56) rotate(45)">
				
					<rect x="-5.4" y="7.4" transform="matrix(2.535181e-06 1 -1 2.535181e-06 48.2539 12.7258)" class="st3" width="46.3" height="46.3"/>
			</g>
		</g>
		<g transform="matrix(1, 0, 0, 1, -214.61, 2800.67)" class="st5">
			<g id="Rectangle_85-3_1_" transform="translate(1894.88 279.51) rotate(45)">
				
					<rect x="-5.4" y="7.4" transform="matrix(2.535181e-06 1 -1 2.535181e-06 48.2539 12.7258)" class="st3" width="46.3" height="46.3"/>
			</g>
		</g>
	</g>
	<g id="Group_1630" transform="translate(0 1986.754)" class="st1">
		<g transform="matrix(1, 0, 0, 1, -9, -187.75)" class="st6">
			<g id="Rectangle_81-4_1_" transform="translate(77.24 221.87) rotate(135)">
				<rect x="7.4" y="7.4" class="st3" width="46.3" height="46.3"/>
			</g>
		</g>
		<g transform="matrix(1, 0, 0, 1, -9, -187.75)" class="st7">
			<g id="Rectangle_84-4_1_" transform="translate(119.55 267.68) rotate(135)">
				<rect x="7.4" y="7.4" class="st3" width="46.3" height="46.3"/>
			</g>
		</g>
		<g transform="matrix(1, 0, 0, 1, -9, -187.75)" class="st8">
			<g id="Rectangle_85-4_1_" transform="translate(77.24 313.63) rotate(135)">
				<rect x="7.4" y="7.4" class="st3" width="46.3" height="46.3"/>
			</g>
		</g>
	</g>
</g>
</svg>
