<svg xmlns="http://www.w3.org/2000/svg" viewBox="0 0 1100 800"><defs><style>.cls-1{fill:#fff;}.cls-2{opacity:0.5;}.cls-3{fill:#eed5d5;}.cls-4{isolation:isolate;}.cls-5{fill:#c86f55;}.cls-6{opacity:0.1;}.cls-7{fill:#babcbe;}.cls-8{fill:#aa6755;}.cls-9{fill:#292949;}.cls-10{fill:#a2a2a2;}.cls-11{fill:#eac1a4;}.cls-12{fill:#b6b6b7;}.cls-13{fill:#212135;}.cls-14{fill:#f2f2f2;}</style></defs><g id="Background"><rect class="cls-1" width="1100" height="800"/></g><g id="Shadow"><g class="cls-2"><path class="cls-3" d="M516.9,691c-20.68,0-41.35.51-62,2.65-7.78.8-15.4,2.57-23.2,3.28-15.58,1.42-30.88,4.08-46.52,5.3-12.59,1-25.23,1.57-37.78,2.82a143.73,143.73,0,0,1-36.48-1c-8.65-1.44-17.33-2.25-25.83-4.55-9.51-2.58-19.84-4.42-29.75-4.36-14.13.1-27.89.11-41.41,4.66-4.75,1.6-10.56,4.23-14.16,7.58-8.25,7.68-9.37,26.84-1.13,34.8,13.87,13.4,43.49,18.66,62.94,18.91,21.31.27,42-1.2,63.36-2.06,19.84-.8,39.62-1.94,59.49-1.9,40.57.08,81.15,0,121.65-2.52,38.06-2.36,76.2-1.55,114.34-1.55,39.11,0,78,.28,116.77,5.11,16.92,2.1,34.16,2.83,51.16,4.31,15.22,1.32,29.85,0,45-1.25a114,114,0,0,0,37-9.19c9.16-4.06,25.49-16.68,28.3-26.37,7.87-27.18-111-26.53-129.21-26.46-20.41.06-41,.69-61.37,0-8.58-.31-17-1.86-25.41-3.57s-16.74-1.27-25.2-2c-35.26-3-70.61-2.54-106-2.54C539.93,691.07,528.42,691,516.9,691Z"/></g></g><g id="Object"><path d="M586.93,91.47c.24,3.45-1.55,6.61-3.42,9.32-12.5,18-41.26,37.14-60.37,24.63,2.21-.4,7.93-.26,12.44-1.21,10.71-2.26,17.83-13.68,23.69-23.95,3.59-6.29,4.62-24.4,11.51-26.77C577.37,71.22,586.45,84.6,586.93,91.47Z"/><path d="M526.4,100.88c4.88-10.6,9.84-17.36,16.34-24.92s15.31-13.24,24.73-13.21a6.65,6.65,0,0,1,3.28.66,9.18,9.18,0,0,1,2.75,3c4.33,6.33,12.66,14.83,13.32,23.63-16.32-1.73-33.5,4-46.9,14.42-10,7.75-16,22-17.11,22C512.76,126.23,524.11,105.87,526.4,100.88Z"/><path d="M454.26,104.62c.28,3.44,2.51,6.28,4.77,8.65,15,15.8,46.28,30,63.29,14.59-2.24,0-7.86,1-12.46.81-10.92-.5-19.65-10.63-27-19.83-4.48-5.64-8.19-23.36-15.35-24.59C460.7,83.08,453.71,97.76,454.26,104.62Z"/><path d="M515.46,104.15a96.48,96.48,0,0,0-19.85-22c-7.55-6.42-17.09-10.61-26.39-9a6.66,6.66,0,0,0-3.15,1.18,9.43,9.43,0,0,0-2.28,3.39c-3.33,6.95-10.3,16.69-9.64,25.49,15.86-4.35,33.7-1.41,48.48,6.68,11,6,19.14,19.19,20.18,19C532.7,127,518.47,108.71,515.46,104.15Z"/><g class="cls-4"><polygon class="cls-5" points="632.99 290.38 441.44 305.93 428.67 135.19 620.22 119.64 632.99 290.38"/></g><g class="cls-4"><polygon class="cls-5" points="636.54 161.69 418.8 179.37 415.58 136.26 633.31 118.58 636.54 161.69"/></g><g class="cls-6"><polygon points="440.06 177.65 623.44 162.76 624.59 178.13 440.06 177.65"/></g><path d="M547.42,297.32l-23.7,1.93L510.79,126.38a3.08,3.08,0,0,1,2.65-3.41l17.92-1.46a3,3,0,0,1,3.13,2.94Z"/><polygon class="cls-7" points="798.45 368.61 863.1 438.69 813.96 480.41 806.7 471.65 825.94 431.66 788.25 398.43 798.45 368.61"/><polygon points="814.54 543.26 817.46 610.93 808.91 726 796.11 726.91 780.56 622.4 759.04 533.96 814.54 543.26"/><polygon points="796.56 732.3 810.9 738.24 817.33 730.83 809.91 724.4 796.07 725.38 796.56 732.3"/><polygon points="723.94 519.31 721.13 570.46 729.47 722.57 742.28 723.21 761.49 623.45 778.43 514.05 723.94 519.31"/><polygon points="741.94 728.61 727.73 734.84 721.15 727.57 728.42 720.98 742.28 721.68 741.94 728.61"/><path class="cls-7" d="M798.45,368.61l-40-4.28s-22.24,2.38-37.34,55.21c-8.4,29.39-11,75.7-11.57,111,1,5,6.43,27.1,29.63,23.35,39.85-6.42,61.05-12.85,78.4-9.63,14.78,3.21,13.53-17.14,11.91-32.67l-5.89-48.05Z"/><path class="cls-8" d="M790.73,318.84c-10.08-2.23-20.45-4.22-30.54-2.22-2.21.44-4.59,1.21-5.78,3.11a8.82,8.82,0,0,0-.94,2.44c-2.55,9.46-5.78,23.5.45,32.22a15.68,15.68,0,0,0,4.5,4.05,22.23,22.23,0,0,0,7.46,2.93,40.62,40.62,0,0,1-2.26,6.87c2.31,3.48,13.07,3.9,15.06.56.11-2.89.22-5.77.34-8.66a21.63,21.63,0,0,0,3.76-1.95,24.32,24.32,0,0,0,9.39-12.78c1.92-5.6,4.62-10.92,6.37-16.63.64-2.08,1.14-4.45.05-6.33s-3.68-2.69-5.94-3.19Z"/><path class="cls-9" d="M757.18,324.25c5-3.21,12.46-4.59,17.14-4.25,14.16,1,19.35,11.43,20.11,24.45,3.9-5,11.22-11.2,11.66-17.58.37-5.22-.36-12.34-3.28-16.85-2.74-4.22-9.74-6.54-13.91-9l-11.77-6.91a7.86,7.86,0,0,0-2.59-1.13,8,8,0,0,0-3.31.37l-27.83,7.19c-1.78.46-3.81,1.13-4.47,2.85a5.93,5.93,0,0,0,.08,3.31c1,4.82,3.07,9.74,3.57,14.62.57,2.83,2.26,17.36,7.28,15.68,1.47-2.41,1.69-5.38,2.84-8A11.58,11.58,0,0,1,757.18,324.25Z"/><polygon class="cls-7" points="758.46 364.33 743.68 368.83 689.7 425.38 686.49 444.01 712.29 486.62 719.26 471 708.34 439.52 725.69 427.31 748.82 375.25 758.46 364.33"/><polygon class="cls-10" points="639.44 293.25 642.11 276.84 635.15 275.39 630.83 286.23 627.85 284.02 627.28 298.34 634.32 300.82 639.44 293.25"/><polygon class="cls-10" points="552.28 388.02 598.48 349.15 627.28 298.34 636.83 300.89 622.43 363.97 573.62 422.87 552.28 388.02"/><polygon points="545.48 730.85 546.16 737.91 560.45 744.03 566.58 736.5 559.1 729.91 544.8 723.79 545.48 730.85"/><polygon points="533.55 587.77 544.55 728.63 558.32 730.5 569.72 610.45 579.14 572.36 533.55 587.77"/><polygon points="500.62 550.81 492.36 718.18 504.92 720.55 531.1 593.9 545.49 557.23 500.62 550.81"/><polygon points="503.8 726.09 488.88 730.65 483.43 722.25 491.56 716.41 505.14 718.97 503.8 726.09"/><path class="cls-10" d="M518.38,370c10.17-8.42,34.69-3.58,47.59-3.58-1.24,0,40.15,162.7,43.09,172,4.86,15.42,4.85,33.58,3.47,49.54-13.84,3.81-26.81,10.94-41.06,12.78-11.71,1.52-23.54-.63-35.31-1.67-13.92-1.24-27.93-.91-41.86-2s-28-3.63-40.34-10.2a202.21,202.21,0,0,0,13.29-33.41c3.51-11.38,8-24,9.31-35.9,1.15-10.72,1.34-21.63,2.9-32.51,1.82-12.65,4-25.26,7-37.68a283.38,283.38,0,0,1,13.65-41.63c4.27-10.28,9.37-27.11,17.4-35Q517.94,370.4,518.38,370Z"/><path class="cls-9" d="M540,331.1c-6.45,1.18-14.39,6.68-16,13.48-.74,3.27.32,6.29-.62,9.76-1.82,6.85,6.47,17-1.74,21.71-4.22,2.45-9.49,1.65-14.29.79a3.65,3.65,0,0,1-1.65-.6,2.5,2.5,0,0,1-.6-2.68,10.59,10.59,0,0,1,1.44-2.53c5.64-8.48,4.28-20.64,6.47-30.3s7.37-19.24,16.92-23.19a21.89,21.89,0,0,1,9.4,13.65Z"/><path class="cls-11" d="M531.9,372.6c-6.2-2.65-10.31-9-11.66-15.57s-.28-13.49,1.55-20c6.07-21.6,33.18-15.41,39.5,3.06C566.8,356.21,549.93,380.31,531.9,372.6Z"/><path class="cls-9" d="M563.46,384.48c-3-1.89-6-3.87-7.79-7.41-2.85-5.71-1.65-14.58-2-20.78-.35-6.53-.95-13.64-5.43-18.41-2.92-3.11-6.52-4-10.58-4.38-2.78-.28-3,.76-5.21-.94-1.7-1.3-3-4.85-3.2-6.89-.41-3.43,1.25-6.88,3.7-9.31a16.25,16.25,0,0,1,13.2-5.09c18.18,1.15,30.89,13.07,34.49,31.24,1.74,8.74-.89,18.07,1,26.5,1.19,5.2,4.14,8.85,5,14.36,2.22,14.29,8.42,32.85,6.6,47.27a2,2,0,0,1-.61,1.44c-.88.65-2-.33-2.67-1.22L578.77,415.3a26.85,26.85,0,0,1-3.81-6.46c-2.13-5.89-.15-13.09-3.81-18.16C569.15,387.91,566.28,386.23,563.46,384.48Z"/><polygon class="cls-10" points="433.34 307.52 428.84 291.51 435.6 289.29 441.11 299.57 443.81 297.04 445.99 311.21 439.28 314.47 433.34 307.52"/><polygon class="cls-10" points="530.58 391.91 480.31 358.47 445.99 311.21 436.78 314.82 458.17 375.88 513.29 428.93 530.58 391.91"/><polygon class="cls-11" points="247.74 287.73 259.24 270.59 268.85 274.75 264.31 288.08 269.85 288.4 257.72 301.97 247.09 298.7 247.74 287.73"/><polygon class="cls-10" points="320.95 380.79 337.06 386.31 363.12 425.38 396.5 403.05 407.11 415.64 390.27 440.61 359.96 462.26 320.95 421.43 320.95 380.79"/><polygon class="cls-12" points="358.82 493.2 359.96 592.36 349.4 720.01 335.03 720.01 317.83 602.24 298.17 484.27 358.82 493.2"/><polygon class="cls-13" points="335.11 726.07 350.65 733.84 358.42 726.07 350.65 718.3 335.11 718.3 335.11 726.07"/><polygon class="cls-12" points="260.31 493.2 260.02 550.57 269.71 720.01 284.08 720.01 308.12 607.57 320.95 484.27 260.31 493.2"/><polygon class="cls-13" points="284 726.07 268.46 733.84 260.69 726.07 268.46 718.3 284 718.3 284 726.07"/><path class="cls-10" d="M245.36,527.74c-.3,9.1-.11,21.28,3.73,21.73a3.72,3.72,0,0,0,2-.54c6.66-3.23,11.41-7.81,18-10.94,6.88-3.28,14.71-5,22.36-6.18a232.29,232.29,0,0,1,34.47-3c9.87-.09,20.13,4.41,29.46,6.88,3.59,1,6.51,3.57,9.49,5.62,4.4,3,6.33,4.24,5.73-2-1-10.1-2-20.2-3.24-30.28-2.48-20.09-5.85-40.14-11.56-59.6-2.18-7.43-4.7-14.76-7.22-22.08Q344,414,339.41,400.61c-3.8-11.08-10.23-18.89-21.48-22.77-9.72-3.35-21.8-4.27-31.26.42-10.51,5.22-15.51,23-20.62,32.48-4.48,8.32-10.12,31-11.79,40-2,10.8-3.88,21.55-5.35,32.26a331.49,331.49,0,0,0-3.1,35.48C245.77,519.76,245.51,523.39,245.36,527.74Z"/><path class="cls-11" d="M309.07,380.21a2.36,2.36,0,0,1-.79.45,4.3,4.3,0,0,1-1.89,0l-7.7-.91c.84-7.87-3.76-9.64-8.24-14.7s-3.14-12.05-2.88-18.32a13.32,13.32,0,0,1,.89-5.14c1.3-2.78,4.32-4.32,7.25-5.23,7.48-2.32,16-1.75,22.63,2.49a12,12,0,0,1,4.34,4.4c1.46,2.87,1.09,6.28.68,9.47a32,32,0,0,1-4.85,13.84c-2.58,3.85-7.51,5.7-8.07,10.32A5.26,5.26,0,0,1,309.07,380.21Z"/><path class="cls-9" d="M323.14,347.07c-.43,2-1.36,4-.88,5.95,3.14-1.07,5.2-4.28,6.31-7.55a11.54,11.54,0,0,0,.74-4.61,5.5,5.5,0,0,0-2-4c-1.73-1.24-4.82-.75-5.31,1.49S323.8,344.1,323.14,347.07Z"/><path class="cls-9" d="M339.81,329.71a7,7,0,0,0-3.09-5.91c-1.83-1.24-3.93-2.26-5-4.22-.86-1.52-1-3.4-1.84-4.92-1.54-2.77-4.89-3.58-7.81-4.51-7.29-2.35-11.21-5-18.94-2-5.49,2.13-12.58,2.42-17.68,5.52a17.81,17.81,0,0,0-5.42,5.71c-5.15,8.05-6.39,19.37-3,27.76a34.46,34.46,0,0,0,2.72,5.27c2,3.3,4.22,7.38,7.83,9,.23-1.56,1.39-2.42,1.75-4a12,12,0,0,0,.12-3.39c-.22-4.41-1.58-11.39,2.83-13.58,5.58-2.77,16-.27,21.4,2.07,4.75,2.07,12.77,4.77,17.83,2.55C336.15,343,340,334.77,339.81,329.71Z"/><g class="cls-4"><polygon class="cls-10" points="291.07 377.25 241.78 362.73 260.02 301.1 244.99 290.32 208.7 361.66 218.73 386.36 265.83 410.67 291.07 377.25"/></g><polygon class="cls-8" points="725.01 423.87 728.84 432.31 714.92 438.36 702.03 429.45 708.82 417.76 725.01 423.87"/><rect class="cls-14" x="215.04" y="417.63" width="536.77" height="205.16" transform="translate(-31.63 31.3) rotate(-3.59)"/><path class="cls-1" d="M235.37,625.28,224.18,447l507.3-31.84,11.19,178.31ZM227.59,450l10.79,171.88,500.88-31.43L728.48,418.55Z"/><path d="M315.24,501.29l15.66-1L307.75,561l-12.35.78-30.55-57.32,16.16-1L300.48,542Z"/><path d="M348.42,555.49a25.13,25.13,0,0,1-11-9.92,34.2,34.2,0,0,1-4.61-15.85,33.3,33.3,0,0,1,2.64-16.22,25.45,25.45,0,0,1,9.66-11.14,35.38,35.38,0,0,1,31.41-2,25,25,0,0,1,10.89,9.84A34.15,34.15,0,0,1,392,526a34.6,34.6,0,0,1-2.56,16.3,24.9,24.9,0,0,1-9.57,11.2,35.41,35.41,0,0,1-31.45,2ZM373.76,541q3.47-5,2.9-14T372,513.57a12.65,12.65,0,0,0-10.69-4q-6.64.42-10.07,5.29t-2.87,13.91q.57,9.12,4.59,13.56A13.83,13.83,0,0,0,373.76,541Z"/><path d="M409,548.86q-7-6.09-7.83-18.69L399,496l15.16-.95,2.18,34.72q.4,6.39,3.47,9.6t8.38,2.89a9.82,9.82,0,0,0,7.82-3.95q2.61-3.62,2.21-9.91l-2.18-34.72,15.33-1,2.14,34.15q.78,12.42-5.56,19.44t-19,7.81Q416,554.95,409,548.86Z"/><path d="M477.73,547.29a26,26,0,0,1-11.19-10,36,36,0,0,1-2-31.7,26,26,0,0,1,9.86-11.26,32.71,32.71,0,0,1,15.8-4.78,36.8,36.8,0,0,1,11.34,1,23.91,23.91,0,0,1,9,4.18l-4,11.32a25.21,25.21,0,0,0-15.25-4.29q-7.12.45-10.65,5.21t-3,13.62q.57,8.94,4.66,13.27t11.23,3.87a25.18,25.18,0,0,0,14.59-6.16l5.41,10.73a23.87,23.87,0,0,1-8.44,5.27A36.54,36.54,0,0,1,494,550.05,32.69,32.69,0,0,1,477.73,547.29Z"/><path d="M557.46,486.09l15.25-1,3.71,59-15.25,1-1.5-23.87-23.87,1.5,1.5,23.87-15.25,1-3.7-59,15.25-1,1.44,23L558.9,509Z"/><path d="M587,543.47l-3.7-59,42.1-2.64.75,11.94-26.94,1.69.7,11.1L625.12,505l.75,11.93-25.19,1.58.76,12.1,26.93-1.69.75,11.94Z"/><path d="M688.37,537.11l-16.49,1L663,519c-1-2.15-3.16-3.13-6.42-2.92l-5.63.35,1.44,23-15.34,1-3.7-59,27.43-1.72q10.69-.66,16.37,3.59t6.21,12.8a17,17,0,0,1-2.54,10.52,17.24,17.24,0,0,1-8.61,6.74,9.15,9.15,0,0,1,4.62,2,12.58,12.58,0,0,1,3.46,4.7ZM667,502.22a5.37,5.37,0,0,0,1.94-4.91,5.51,5.51,0,0,0-2.5-4.75c-1.53-.9-4-1.25-7.35-1l-9.77.61.79,12.68,9.78-.62Q664.83,503.9,667,502.22Z"/><polygon class="cls-5" points="748.96 653.65 805.46 553.98 778.42 538.66 751.39 523.33 694.89 623 732.71 619.29 748.96 653.65"/><polygon class="cls-5" points="825.35 664.59 799.09 553.07 829.34 545.95 859.59 538.83 885.84 650.35 850.58 636.17 825.35 664.59"/><polygon class="cls-5" points="908.3 495.84 924.69 485.34 911.97 470.62 925.08 456.24 908.99 445.3 917.93 428.02 899.55 421.62 903.72 402.61 884.31 401.19 883.42 381.75 864.3 385.4 858.41 366.86 840.89 375.33 830.39 358.94 815.67 371.66 801.29 358.55 790.35 374.64 773.07 365.7 766.67 384.07 747.66 379.91 746.24 399.32 726.8 400.21 730.45 419.32 711.91 425.22 720.38 442.74 703.99 453.23 716.71 467.96 703.6 482.34 719.69 493.28 710.75 510.56 729.13 516.96 724.96 535.97 744.37 537.39 745.26 556.83 764.38 553.18 770.27 571.72 787.79 563.25 798.28 579.64 813.01 566.92 827.39 580.03 838.33 563.94 855.61 572.88 862.01 554.5 881.02 558.67 882.44 539.26 901.88 538.37 898.23 519.25 916.77 513.36 908.3 495.84"/><circle class="cls-1" cx="814.34" cy="469.29" r="68.36" transform="translate(194.28 1175.62) rotate(-78.68)"/><path d="M822.19,423.26l9.91,28.46a1.49,1.49,0,0,0,1,1l29,7.93a1.51,1.51,0,0,1,.51,2.65L838.7,481.53a1.51,1.51,0,0,0-.6,1.27l1.42,30.12a1.5,1.5,0,0,1-2.35,1.31l-24.7-17.17a1.5,1.5,0,0,0-1.39-.17L783,507.57a1.5,1.5,0,0,1-2-1.84l8.67-28.88a1.52,1.52,0,0,0-.27-1.38L770.6,452a1.51,1.51,0,0,1,1.14-2.45l30-.67a1.51,1.51,0,0,0,1.22-.68l16.51-25.22A1.5,1.5,0,0,1,822.19,423.26Z"/><polygon points="780.29 510.97 780.29 510.97 780.29 510.97 780.29 510.97"/><polygon class="cls-8" points="906.33 398.84 908.48 407.85 893.66 411.15 882.71 399.94 891.6 389.76 906.33 398.84"/><polygon class="cls-11" points="397.49 400.29 413.94 406.46 418.02 423.92 408.48 426.09 400.75 415.51 394.39 415.12 388.43 405.48 397.49 400.29"/></g></svg>