<?xml version="1.0" encoding="utf-8"?>
<!-- Generator: Adobe Illustrator 25.1.0, SVG Export Plug-In . SVG Version: 6.00 Build 0)  -->
<svg version="1.1" id="Layer_1" xmlns="http://www.w3.org/2000/svg" xmlns:xlink="http://www.w3.org/1999/xlink" x="0px" y="0px"
	 viewBox="0 0 819 800" style="enable-background:new 0 0 819 800;" xml:space="preserve">
<style type="text/css">
	.st0{display:none;}
	.st1{display:inline;fill:#F26868;}
	.st2{opacity:0.5;}
	.st3{fill:#EED5D5;}
	.st4{fill:#C86F55;}
	.st5{opacity:0.1;}
	.st6{fill:#BABCBE;}
	.st7{fill:#AA6755;}
	.st8{fill:#292949;}
	.st9{fill:#A2A2A2;}
	.st10{fill:#EAC1A4;}
	.st11{fill:#B6B6B7;}
	.st12{fill:#212135;}
	.st13{fill:#F2F2F2;}
	.st14{fill:#FFFFFF;}
</style>
<g class="st0">
	<rect class="st1" width="819" height="800"/>
</g>
<g id="Shadow">
	<g class="st2">
		<path class="st3" d="M364.6,709.4c-22.8,0-45.6,0.6-68.3,2.9c-8.6,0.9-17,2.8-25.6,3.6c-17.2,1.6-34,4.5-51.3,5.8
			c-13.9,1.1-27.8,1.7-41.6,3.1c-13.4,1.3-26.9,1-40.2-1.1c-9.5-1.6-19.1-2.5-28.5-5c-10.5-2.8-21.9-4.9-32.8-4.8
			c-15.6,0.1-30.7,0.1-45.6,5.1c-5.2,1.8-11.6,4.7-15.6,8.4C6,735.9,4.8,757,13.9,765.8c15.3,14.8,47.9,20.6,69.4,20.8
			c23.5,0.3,46.3-1.3,69.8-2.3c21.9-0.9,43.7-2.1,65.6-2.1c44.7,0.1,89.4,0,134.1-2.8c41.9-2.6,84-1.7,126-1.7
			c43.1,0,86,0.3,128.7,5.6c18.6,2.3,37.6,3.1,56.4,4.7c16.8,1.5,32.9,0,49.6-1.4c14.1-1.1,27.8-4.5,40.8-10.1
			c10.1-4.5,28.1-18.4,31.2-29.1c8.7-30-122.3-29.2-142.4-29.2c-22.5,0.1-45.2,0.8-67.6,0c-9.5-0.3-18.7-2-28-3.9
			c-9.3-1.9-18.4-1.4-27.8-2.2c-38.9-3.3-77.8-2.8-116.8-2.8C390,709.5,377.3,709.4,364.6,709.4z"/>
	</g>
</g>
<g id="Object">
	<path d="M441.8,48.7c0.3,3.8-1.7,7.3-3.8,10.3c-13.8,19.8-45.5,40.9-66.5,27.1c2.4-0.4,8.7-0.3,13.7-1.3
		c11.8-2.5,19.6-15.1,26.1-26.4c4-6.9,5.1-26.9,12.7-29.5C431.2,26.3,441.2,41.1,441.8,48.7z"/>
	<path d="M375.1,59c5.4-11.7,10.8-19.1,18-27.5c7.2-8.3,16.9-14.6,27.3-14.6c1.2-0.1,2.5,0.2,3.6,0.7c1.2,0.9,2.3,2,3,3.3
		c4.8,7,14,16.3,14.7,26c-18-1.9-36.9,4.4-51.7,15.9c-11,8.5-17.6,24.2-18.9,24.2C360,87,372.5,64.5,375.1,59z"/>
	<path d="M295.6,63.2c0.3,3.8,2.8,6.9,5.3,9.5c16.5,17.4,51,33.1,69.8,16.1c-2.5,0-8.7,1.1-13.7,0.9c-12-0.6-21.7-11.7-29.8-21.9
		c-4.9-6.2-9-25.7-16.9-27.1C302.7,39.4,295,55.6,295.6,63.2z"/>
	<path d="M363,62.6c-6-9.2-13.4-17.3-21.9-24.2c-8.3-7.1-18.8-11.7-29.1-9.9c-1.2,0.1-2.4,0.6-3.5,1.3c-1.1,1-2,2.3-2.5,3.7
		c-3.7,7.7-11.4,18.4-10.6,28.1c17.5-4.8,37.1-1.6,53.4,7.4c12.1,6.6,21.1,21.1,22.2,20.9C382,87.8,366.3,67.7,363,62.6z"/>
	<g>
		<polygon class="st4" points="492.5,267.9 281.4,285 267.4,96.8 478.5,79.7 		"/>
	</g>
	<g>
		<polygon class="st4" points="496.5,126.1 256.5,145.5 252.9,98 492.9,78.5 		"/>
	</g>
	<g class="st5">
		<polygon points="279.9,143.6 482,127.2 483.3,144.2 		"/>
	</g>
	<path d="M398.2,275.5l-26.1,2.1L357.9,87.1c-0.2-1.8,1.1-3.5,2.9-3.8l19.7-1.6c1.8-0.1,3.4,1.3,3.4,3.2c0,0,0,0.1,0,0.1
		L398.2,275.5z"/>
	<polygon class="st6" points="674.9,354.1 746.1,431.3 692,477.3 684,467.6 705.2,423.6 663.6,387 	"/>
	<polygon points="692.6,546.6 695.8,621.1 686.4,748 672.3,749 655.2,633.8 631.5,536.3 	"/>
	<polygon points="672.8,754.9 688.6,761.4 695.7,753.3 687.5,746.2 672.3,747.3 	"/>
	<polygon points="592.8,520.2 589.7,576.5 598.9,744.2 613,744.9 634.2,634.9 652.8,514.4 	"/>
	<polygon points="612.6,750.8 596.9,757.7 589.7,749.7 597.7,742.4 613,743.2 	"/>
	<path class="st6" d="M674.9,354.1l-44.1-4.7c0,0-24.5,2.6-41.2,60.8c-9.3,32.4-12.1,83.4-12.8,122.3c1.1,5.5,7.1,29.9,32.7,25.7
		c43.9-7.1,67.3-14.2,86.4-10.6c16.3,3.5,14.9-18.9,13.1-36l-6.5-53L674.9,354.1z"/>
	<path class="st7" d="M666.4,299.2c-11.1-2.5-22.5-4.7-33.7-2.4c-2.4,0.5-5.1,1.3-6.4,3.4c-0.5,0.8-0.8,1.7-1,2.7
		c-2.8,10.4-6.4,25.9,0.5,35.5c1.3,1.8,3,3.3,5,4.5c2.5,1.6,5.3,2.7,8.2,3.2c-0.6,2.6-1.4,5.1-2.5,7.6c2.5,3.8,14.4,4.3,16.6,0.6
		c0.1-3.2,0.2-6.4,0.4-9.5c1.4-0.6,2.8-1.3,4.1-2.1c4.9-3.4,8.6-8.4,10.3-14.1c2.1-6.2,5.1-12,7-18.3c0.7-2.3,1.3-4.9,0.1-7
		c-1.2-2.1-4.1-3-6.5-3.5L666.4,299.2z"/>
	<path class="st8" d="M629.4,305.2c5.5-3.5,13.7-5.1,18.9-4.7c15.6,1.1,21.3,12.6,22.2,26.9c4.3-5.5,12.4-12.3,12.9-19.4
		c0.4-5.8-0.4-13.6-3.6-18.6c-3-4.7-10.7-7.2-15.3-9.9l-13-7.6c-0.9-0.6-1.8-1-2.9-1.2c-1.2-0.1-2.5,0-3.6,0.4l-30.7,7.9
		c-2,0.5-4.2,1.2-4.9,3.1c-0.3,1.2-0.3,2.5,0.1,3.6c1.1,5.3,3.4,10.7,3.9,16.1c0.6,3.1,2.5,19.1,8,17.3c1.6-2.7,1.9-5.9,3.1-8.8
		C625.6,308.3,627.3,306.4,629.4,305.2z"/>
	<polygon class="st6" points="630.8,349.4 614.5,354.3 555,416.7 551.5,437.2 579.9,484.1 587.6,466.9 575.6,432.2 594.7,418.8 
		620.2,361.4 	"/>
	<polygon class="st9" points="499.6,271 502.6,253 494.9,251.4 490.2,263.3 486.9,260.9 486.2,276.6 494,279.4 	"/>
	<polygon class="st9" points="403.6,375.5 454.5,332.6 486.2,276.6 496.8,279.5 480.9,349 427.1,413.9 	"/>
	<polygon points="396.1,753.3 396.8,761.1 412.6,767.8 419.4,759.5 411.1,752.3 395.3,745.5 	"/>
	<polygon points="382.9,595.6 395.1,750.9 410.2,752.9 422.8,620.6 433.2,578.6 	"/>
	<polygon points="346.7,554.9 337.6,739.3 351.4,742 380.2,602.4 396.1,562 	"/>
	<polygon points="350.2,748.1 333.7,753.1 327.7,743.8 336.7,737.4 351.6,740.2 	"/>
	<path class="st9" d="M366.2,355.6c11.2-9.3,38.2-3.9,52.4-3.9c-1.4,0,44.2,179.3,47.5,189.6c5.4,17,5.3,37,3.8,54.6
		c-15.3,4.2-29.5,12.1-45.3,14.1c-12.9,1.7-25.9-0.7-38.9-1.8c-15.3-1.4-30.8-1-46.1-2.2c-15.4-1.2-30.9-4-44.5-11.2
		c6-11.8,10.9-24.1,14.6-36.8c3.9-12.5,8.8-26.4,10.3-39.6c1.3-11.8,1.5-23.8,3.2-35.8c2-13.9,4.4-27.8,7.7-41.5
		c3.8-15.7,8.9-31,15-45.9c4.7-11.3,10.3-29.9,19.2-38.6C365.6,356.2,365.9,355.9,366.2,355.6z"/>
	<path class="st8" d="M390.1,312.8c-7.1,1.3-15.9,7.4-17.6,14.9c-0.8,3.6,0.4,6.9-0.7,10.8c-2,7.5,7.1,18.7-1.9,23.9
		c-4.7,2.7-10.5,1.8-15.7,0.9c-0.7-0.1-1.3-0.3-1.8-0.7c-0.8-0.8-1-1.9-0.7-3c0.4-1,0.9-1.9,1.6-2.8c6.2-9.3,4.7-22.7,7.1-33.4
		c2.4-10.6,8.1-21.2,18.6-25.6c5.3,3.5,9,8.9,10.4,15L390.1,312.8z"/>
	<path class="st10" d="M381.1,358.5c-6.8-2.9-11.4-9.9-12.9-17.2c-1.5-7.2-0.3-14.9,1.7-22c6.7-23.8,36.6-17,43.5,3.4
		C419.6,340.4,401,367,381.1,358.5z"/>
	<path class="st8" d="M415.9,371.6c-3.3-2.1-6.6-4.3-8.6-8.2c-3.1-6.3-1.8-16.1-2.2-22.9c-0.4-7.2-1-15-6-20.3
		c-3.2-3.4-7.2-4.4-11.7-4.8c-3.1-0.3-3.3,0.8-5.7-1c-1.9-1.4-3.3-5.3-3.5-7.6c-0.5-3.8,1.4-7.6,4.1-10.3c3.7-4,9.1-6.1,14.5-5.6
		c20,1.3,34,14.4,38,34.4c1.9,9.6-1,19.9,1.1,29.2c1.3,5.7,4.6,9.8,5.5,15.8c2.4,15.7,9.3,36.2,7.3,52.1c0,0.6-0.2,1.2-0.7,1.6
		c-1,0.7-2.2-0.4-2.9-1.3l-12.3-17.1c-1.7-2.2-3.1-4.6-4.2-7.1c-2.3-6.5-0.2-14.4-4.2-20C422.2,375.4,419,373.5,415.9,371.6z"/>
	<polygon class="st9" points="272.5,286.8 267.6,269.1 275,266.7 281.1,278 284,275.2 286.5,290.8 279.1,294.4 	"/>
	<polygon class="st9" points="379.7,379.8 324.3,342.9 286.5,290.8 276.3,294.8 299.9,362.1 360.6,420.6 	"/>
	<polygon class="st10" points="68,265 80.6,246.1 91.2,250.7 86.2,265.3 92.3,265.7 79,280.6 67.2,277 	"/>
	<polygon class="st9" points="148.6,367.5 166.4,373.6 195.1,416.7 231.9,392 243.6,405.9 225,433.4 191.6,457.3 148.6,412.3 	"/>
	<polygon class="st11" points="190.4,491.4 191.6,600.7 180,741.4 164.2,741.4 145.2,611.6 123.5,481.6 	"/>
	<polygon class="st12" points="164.3,748 181.4,756.6 189.9,748 181.4,739.5 164.3,739.5 	"/>
	<polygon class="st11" points="81.8,491.4 81.5,554.6 92.2,741.4 108,741.4 134.5,617.4 148.6,481.6 	"/>
	<polygon class="st12" points="107.9,748 90.8,756.6 82.2,748 90.8,739.5 107.9,739.5 	"/>
	<path class="st9" d="M65.3,529.5c-0.3,10-0.1,23.5,4.1,23.9c0.8,0,1.5-0.2,2.2-0.6c7.3-3.6,12.6-8.6,19.8-12.1
		c7.6-3.6,16.2-5.5,24.6-6.8c12.6-2,25.3-3.2,38-3.3c10.9-0.1,22.2,4.9,32.5,7.6c4,1.1,7.2,3.9,10.5,6.2c4.8,3.3,7,4.7,6.3-2.2
		c-1.1-11.1-2.2-22.3-3.6-33.4c-2.7-22.1-6.4-44.2-12.7-65.7c-2.4-8.2-5.2-16.3-8-24.3c-3.4-9.8-6.7-19.6-10.1-29.5
		c-4.2-12.2-11.3-20.8-23.7-25.1c-10.7-3.7-24-4.7-34.5,0.5c-11.6,5.8-17.1,25.3-22.7,35.8c-4.9,9.2-11.2,34.2-13,44.1
		c-2.2,11.9-4.3,23.7-5.9,35.6c-1.8,13-3,26-3.4,39.1C65.8,520.7,65.5,524.7,65.3,529.5z"/>
	<path class="st10" d="M135.6,366.9c-0.3,0.2-0.6,0.4-0.9,0.5c-0.7,0.2-1.4,0.2-2.1,0l-8.5-1c0.9-8.7-4.1-10.6-9.1-16.2
		s-3.5-13.3-3.2-20.2c0-1.9,0.3-3.9,1-5.7c1.4-3.1,4.8-4.8,8-5.8c8.2-2.6,17.6-1.9,24.9,2.7c2,1.2,3.6,2.8,4.8,4.8
		c1.6,3.2,1.2,6.9,0.7,10.4c-0.6,5.4-2.4,10.7-5.3,15.3c-2.8,4.2-8.3,6.3-8.9,11.4C137,364.6,136.5,365.9,135.6,366.9z"/>
	<path class="st8" d="M151.1,330.4c-0.5,2.2-1.5,4.4-1,6.6c3.5-1.2,5.7-4.7,7-8.3c0.6-1.6,0.9-3.3,0.8-5.1c-0.1-1.7-0.9-3.3-2.2-4.4
		c-1.9-1.4-5.3-0.8-5.9,1.6C149.3,323.2,151.8,327.1,151.1,330.4z"/>
	<path class="st8" d="M169.4,311.2c0-2.6-1.2-5.1-3.4-6.5c-2-1.4-4.3-2.5-5.5-4.7c-0.9-1.7-1.1-3.7-2-5.4c-1.7-3.1-5.4-3.9-8.6-5
		c-8-2.6-12.4-5.5-20.9-2.2c-6.1,2.3-13.9,2.7-19.5,6.1c-2.4,1.6-4.5,3.8-6,6.3c-5.7,8.9-7,21.3-3.3,30.6c0.8,2,1.8,4,3,5.8
		c2.2,3.6,4.7,8.1,8.6,9.9c0.3-1.7,1.5-2.7,1.9-4.4c0.2-1.2,0.3-2.5,0.1-3.7c-0.2-4.9-1.7-12.6,3.1-15c6.1-3.1,17.6-0.3,23.6,2.3
		c5.2,2.3,14.1,5.3,19.6,2.8C165.4,325.9,169.6,316.8,169.4,311.2z"/>
	<g>
		<polygon class="st9" points="115.7,363.6 61.4,347.6 81.5,279.7 64.9,267.8 24.9,346.4 36,373.7 87.9,400.4 		"/>
	</g>
	<polygon class="st7" points="594,415 598.2,424.3 582.8,431 568.6,421.1 576.1,408.3 	"/>
	
		<rect x="31.9" y="408.1" transform="matrix(0.998 -6.261633e-02 6.261633e-02 0.998 -31.991 21.5422)" class="st13" width="591.6" height="226.1"/>
	<path class="st14" d="M54.3,637L42,440.5l559.1-35.1l12.3,196.5L54.3,637z M45.8,443.8l11.9,189.4l552-34.6l-11.9-189.4L45.8,443.8
		z"/>
	<path d="M142.4,500.3l17.3-1.1l-25.5,66.9l-13.6,0.9l-33.7-63.2l17.8-1.1l21.5,42.5L142.4,500.3z"/>
	<path d="M178.9,560c-5-2.3-9.3-6.2-12.1-10.9c-3.1-5.3-4.8-11.3-5.1-17.5c-0.5-6.1,0.5-12.3,2.9-17.9c2.3-5.1,6-9.3,10.6-12.3
		c10.6-6.1,23.4-6.9,34.6-2.2c5,2.3,9.2,6.1,12,10.8c3.1,5.3,4.8,11.3,5.1,17.4c0.5,6.1-0.4,12.3-2.8,18c-2.2,5.1-5.9,9.4-10.5,12.3
		C203,564,190.2,564.8,178.9,560L178.9,560z M206.8,544.1c2.5-3.7,3.6-8.8,3.2-15.4s-2.1-11.5-5.1-14.8c-3-3.3-7.4-4.9-11.8-4.4
		c-4.9,0.3-8.6,2.3-11.1,5.8c-2.5,3.6-3.6,8.7-3.2,15.3c0.4,6.7,2.1,11.7,5.1,14.9c5.9,6,15.6,6,21.6,0.1
		C206,545.1,206.4,544.6,206.8,544.1z"/>
	<path d="M245.7,552.7c-5.1-4.5-8-11.3-8.6-20.6l-2.4-37.7l16.7-1l2.4,38.3c0.3,4.7,1.6,8.2,3.8,10.6c2.3,2.4,5.3,3.4,9.2,3.2
		c3.4,0,6.6-1.6,8.6-4.4c1.9-2.7,2.7-6.3,2.4-10.9l-2.4-38.3l16.9-1.1l2.4,37.6c0.6,9.1-1.5,16.3-6.1,21.4c-4.7,5.2-11.6,8-20.9,8.6
		C258.2,559.1,250.8,557.2,245.7,552.7z"/>
	<path d="M321.4,551c-5.1-2.4-9.4-6.2-12.3-11c-6.1-10.7-6.9-23.6-2.2-34.9c2.3-5.1,6.1-9.4,10.9-12.4c5.3-3.2,11.3-5,17.4-5.3
		c4.2-0.3,8.4,0.1,12.5,1.1c3.6,0.8,7,2.4,9.9,4.6l-4.4,12.5c-4.9-3.3-10.8-5-16.8-4.7c-5.2,0.3-9.1,2.2-11.7,5.7
		c-2.6,3.5-3.7,8.5-3.3,15c0.4,6.6,2.1,11.4,5.1,14.6c3,3.2,7.1,4.6,12.4,4.3c6-0.5,11.6-2.9,16.1-6.8l6,11.8
		c-2.7,2.6-5.8,4.5-9.3,5.8c-3.9,1.5-8,2.5-12.2,2.7C333.2,554.6,327,553.5,321.4,551z"/>
	<path d="M409.3,483.6l16.8-1.1l4.1,65l-16.8,1.1l-1.7-26.3l-26.3,1.7l1.7,26.3l-16.8,1.1l-4.1-65l16.8-1.1l1.6,25.3l26.3-1.8
		L409.3,483.6z"/>
	<path d="M441.9,546.8l-4.1-65l46.4-2.9L485,492l-29.7,1.9l0.8,12.2l27.8-1.7l0.8,13.1l-27.8,1.7l0.8,13.3l29.7-1.9l0.8,13.2
		L441.9,546.8z"/>
	<path d="M553.6,539.8l-18.2,1.1l-9.8-21.1c-1.1-2.4-3.5-3.4-7.1-3.2l-6.2,0.4l1.6,25.3l-16.9,1.1l-4.1-65l30.2-1.9
		c7.9-0.5,13.9,0.8,18,4c4.2,3.1,6.5,7.8,6.8,14.1c0.4,4.1-0.6,8.1-2.8,11.6c-2.3,3.4-5.6,6-9.5,7.4c1.9,0.2,3.6,1,5.1,2.2
		c1.7,1.4,3,3.2,3.8,5.2L553.6,539.8z M530,501.3c1.6-1.3,2.4-3.4,2.1-5.4c0.1-2.1-1-4.1-2.8-5.2c-1.7-1-4.4-1.4-8.1-1.1l-10.8,0.7
		l0.9,14l10.8-0.7C525.8,503.3,528.4,502.6,530,501.3z"/>
	<polygon class="st4" points="620.3,668.2 682.6,558.4 652.8,541.5 623,524.6 560.8,634.4 602.4,630.4 	"/>
	<polygon class="st4" points="704.5,680.3 675.6,557.4 708.9,549.5 742.3,541.7 771.2,664.6 732.3,649 	"/>
	<polygon class="st4" points="795.9,494.3 814,482.7 800,466.5 814.4,450.7 796.7,438.6 806.6,419.6 786.3,412.5 790.9,391.6 
		769.5,390 768.5,368.6 747.5,372.6 741,352.2 721.7,361.5 710.1,343.4 693.9,357.5 678,343 666,360.7 646.9,350.9 639.9,371.1 
		618.9,366.5 617.3,387.9 595.9,388.9 599.9,410 579.5,416.5 588.8,435.8 570.8,447.3 584.8,463.6 570.4,479.4 588.1,491.5 
		578.2,510.5 598.5,517.6 593.9,538.5 615.3,540.1 616.3,561.5 637.3,557.5 643.8,577.9 663.1,568.6 674.7,586.7 690.9,572.6 
		706.8,587.1 718.8,569.4 737.9,579.2 744.9,559 765.9,563.6 767.5,542.2 788.9,541.2 784.9,520.1 805.3,513.6 	"/>
	
		<ellipse transform="matrix(0.7071 -0.7071 0.7071 0.7071 -126.0162 625.7506)" class="st14" cx="692.3" cy="465" rx="75.3" ry="75.3"/>
	<path d="M701.1,414.3l10.9,31.4c0.2,0.5,0.6,0.9,1.1,1.1l32,8.7c0.9,0.2,1.4,1.2,1.1,2.1c-0.1,0.3-0.3,0.6-0.6,0.9l-26.4,20.1
		c-0.4,0.3-0.7,0.9-0.7,1.4l1.6,33.2c0,0.9-0.7,1.7-1.6,1.7c-0.4,0-0.7-0.1-1-0.3l-27.2-18.9c-0.4-0.3-1-0.4-1.5-0.2l-30.9,11.8
		c-0.8,0.3-1.8-0.1-2.2-0.9c-0.1-0.4-0.2-0.8,0-1.1l9.6-31.8c0.2-0.5,0-1.1-0.3-1.5L644.2,446c-0.6-0.7-0.5-1.8,0.3-2.3
		c0.3-0.2,0.6-0.4,1-0.4l33.1-0.7c0.5,0,1-0.3,1.3-0.7l18.2-27.8c0.5-0.8,1.5-1.1,2.3-0.6C700.7,413.6,700.9,413.9,701.1,414.3z"/>
	<polygon points="654.9,511 654.9,511 654.9,511 	"/>
	<polygon class="st7" points="793.8,387.4 796.1,397.3 779.8,401 767.7,388.6 777.5,377.4 	"/>
	<polygon class="st10" points="233,389 251.1,395.8 255.6,415 245.1,417.4 236.6,405.8 229.6,405.3 223,394.7 	"/>
</g>
</svg>
