<svg xmlns="http://www.w3.org/2000/svg" width="159.928" height="118.107" viewBox="0 0 159.928 118.107"><g transform="translate(-175.073 -275.993)"><path d="M385.932,312.9h26.55c3.12,0,5.652-2.217,5.652-4.951v-27c0-2.739-2.532-4.956-5.652-4.956H355.292c-3.122,0-5.648,2.217-5.648,4.956v27c0,2.734,2.526,4.951,5.648,4.951h22.987l-.759,8.478Z" transform="translate(-138.4 0)" fill="#2d2d2d"/><path d="M620.094,413.065v-18.48a3.335,3.335,0,0,0-3.531-3.1h-13.01v9.746c0,2.938-2.734,5.333-6.088,5.333H580.3v6.5a3.34,3.34,0,0,0,3.539,3.1h17.448l5.259,5.307-.474-5.307h10.491A3.337,3.337,0,0,0,620.094,413.065Z" transform="translate(-321.264 -91.562)" fill="#eb6f53"/><path d="M320.316,591.144A13.44,13.44,0,1,0,333.755,577.7,13.439,13.439,0,0,0,320.316,591.144Z" transform="translate(-115.149 -239.193)" fill="#2d2d2d"/><path d="M667.906,713.551a12.573,12.573,0,0,0-7.767,2.682,19.346,19.346,0,0,1,9.192,16.086H696.1v-6.134a12.636,12.636,0,0,0-12.632-12.634Zm11.108,8.141,2.531,2.44-5.859,6.359-5.861-6.359,2.529-2.44s-3.758-3.406-3.929-3.7c-.3-.525,2.315-2.285,2.315-2.285l4.946,14.787,4.939-14.787s2.617,1.759,2.314,2.285C682.776,718.286,679.014,721.692,679.014,721.692Z" transform="translate(-384.56 -346.896)" fill="#eb6f53"/><path d="M286.648,726.185v6.134h26.818a19.334,19.334,0,0,1,9.167-16.067,12.558,12.558,0,0,0-7.791-2.7H299.283A12.638,12.638,0,0,0,286.648,726.185Zm27.464-11.295c.288,0,.576.018.859.04l-2.9,15.217H310.2l-1.559-10.229h-.05l1.527-2.811H304l1.527,2.811h-.051l-1.558,10.229h-1.866l-2.9-15.217c.283-.023.571-.04.861-.04Z" transform="translate(-88.457 -346.896)" fill="#eb6f53"/><path d="M356.514,725.043l1.559,10.229h1.87l2.9-15.217c-.283-.023-.571-.04-.859-.04H347.889c-.29,0-.577.018-.861.04l2.9,15.217h1.866l1.557-10.229h.051l-1.527-2.811h6.117l-1.527,2.811Z" transform="translate(-136.327 -352.021)" fill="#fff"/><path d="M472.331,557.644a18.2,18.2,0,1,0,18.2-18.2A18.2,18.2,0,0,0,472.331,557.644Z" transform="translate(-235.666 -208.865)" fill="#2d2d2d"/><path d="M542.27,750.423l-2.07-3.8h0Z" transform="translate(-289.472 -373.113)" fill="#616e7d"/><path d="M443.888,723.386a17.1,17.1,0,0,0-17.1,17.106v8.3h55.278v-8.3a17.106,17.106,0,0,0-17.108-17.106ZM461.2,745.858H447.643l-3.925-20.606c.391-.028.773-.06,1.162-.06h19.084c.389,0,.776.033,1.16.06Z" transform="translate(-199.556 -354.693)" fill="#eb6f53"/><path d="M521.362,738.913l2.107,13.854H526l3.921-20.606c-.384-.028-.771-.06-1.16-.06H509.673c-.389,0-.771.032-1.162.06l3.925,20.606h2.526l2.112-13.854h.074l-2.07-3.8h8.277l-2.07,3.8Z" transform="translate(-264.35 -361.602)" fill="#fff"/><path d="M539.642,764.277h8.507l-2.107-13.854h-.078l2.07-3.8h-8.277l2.07,3.8h-.074Z" transform="translate(-289.03 -373.113)" fill="#e1e5e3"/><path d="M742.425,726.228c.3-.525-2.314-2.285-2.314-2.285l-4.939,14.787,5.859-6.359-2.531-2.44S742.262,726.525,742.425,726.228Z" transform="translate(-444.046 -355.135)" fill="#fff"/><path d="M707.3,738.73l-4.946-14.787s-2.616,1.759-2.315,2.285c.171.3,3.929,3.7,3.929,3.7l-2.529,2.44Z" transform="translate(-416.174 -355.135)" fill="#fff"/><path d="M678.809,576.739a13.557,13.557,0,0,0,.864,27.087c.253,0,.5,0,.746-.019h16.187l.065-.323a6.071,6.071,0,0,1-3.44-5.718v-7.241h0l0-.256A13.555,13.555,0,0,0,678.809,576.739Z" transform="translate(-389.298 -238.41)" fill="#2d2d2d"/><path d="M175.073,711.326v4.7h20.486a14.813,14.813,0,0,1,7.035-12.314,9.612,9.612,0,0,0-5.943-2.053H184.739A9.667,9.667,0,0,0,175.073,711.326Zm11.84-8.022,3.782,11.317,3.786-11.317s2,1.349,1.773,1.752c-.133.223-3.007,2.834-3.007,2.834l1.939,1.87-4.491,4.862-4.483-4.862,1.938-1.87s-2.876-2.611-3.007-2.834C184.914,704.653,186.913,703.3,186.913,703.3Z" transform="translate(0 -337.468)" fill="#eb6f53"/><path d="M229.154,720.916,225.372,709.6s-2,1.349-1.771,1.752c.132.223,3.007,2.834,3.007,2.834l-1.938,1.87Z" transform="translate(-38.459 -343.763)" fill="#fff"/><path d="M256.028,711.351c.227-.4-1.773-1.752-1.773-1.752l-3.786,11.317,4.491-4.862-1.939-1.87S255.895,711.574,256.028,711.351Z" transform="translate(-59.774 -343.763)" fill="#fff"/><path d="M188.293,613.667a4.605,4.605,0,0,1-2.611,4.343l.05.247h12.292l.565.014a10.3,10.3,0,1,0-10.3-10.3l0,.2h0Z" transform="translate(-8.411 -255.029)" fill="#2d2d2d"/><path d="M820.021,701.659a9.63,9.63,0,0,0-5.942,2.053,14.8,14.8,0,0,1,7.034,12.314h20.492v-4.7a9.669,9.669,0,0,0-9.672-9.667Zm9.651,12.205h-1.377l-1.147-7.543h-.042l1.131-2.071h-4.512l1.13,2.071h-.043l-1.146,7.543h-1.377l-2.137-11.222c.209-.014.417-.033.633-.033h10.389c.216,0,.425.019.631.033Z" transform="translate(-506.604 -337.468)" fill="#eb6f53"/><path d="M822.237,607.873a10.211,10.211,0,1,0,10.206-10.213A10.209,10.209,0,0,0,822.237,607.873Z" transform="translate(-513.071 -255.018)" fill="#2d2d2d"/><path d="M850.384,709.958l1.147,7.543h1.377l2.134-11.222c-.206-.014-.415-.033-.631-.033H844.022c-.216,0-.424.019-.633.033l2.137,11.222H846.9l1.146-7.543h.043l-1.13-2.071h4.512l-1.131,2.071Z" transform="translate(-529.841 -341.104)" fill="#fff"/></g></svg>