<?xml version="1.0" encoding="utf-8"?>
<!-- Generator: Adobe Illustrator 25.1.0, SVG Export Plug-In . SVG Version: 6.00 Build 0)  -->
<svg version="1.1" id="Layer_1" xmlns="http://www.w3.org/2000/svg" xmlns:xlink="http://www.w3.org/1999/xlink" x="0px" y="0px"
	 viewBox="0 0 173.5 158.1" style="enable-background:new 0 0 173.5 158.1;" xml:space="preserve">
<style type="text/css">
	.st0{display:none;}
	.st1{display:inline;fill:#FFFFFF;}
	.st2{display:none;fill:#EFEFEF;}
	.st3{fill:#0F0F0F;}
	.st4{fill:#424242;}
	.st5{fill:#BDBDC1;}
	.st6{fill:#FFFFFF;}
	.st7{fill:#BFBFC1;}
	.st8{fill:#EB6F53;}
	.st9{fill:#FFD694;}
	.st10{fill:#E8B770;}
	.st11{fill:#262626;}
	.st12{fill:#232323;}
	.st13{fill:#3A3A3A;}
	.st14{fill:#E87967;}
	.st15{fill:#333333;}
	.st16{fill:#282828;}
	.st17{fill:#EA8675;}
	.st18{fill:#79797A;}
	.st19{fill:#050533;}
	.st20{fill:#EA7663;}
	.st21{fill:#161616;}
	.st22{fill:#0E0E54;}
</style>
<g transform="translate(-50.799 -48.405)">
	<g transform="translate(55.524 48.405)" class="st0">
		<path class="st1" d="M35.6,59.6c-0.4-3.6-3.7-6.2-7.3-5.8c-0.1,0-0.2,0-0.3,0c-2.3-4.7-8-6.6-12.7-4.3c-1.7,0.8-3.1,2.2-4,3.8
			c-3.5-0.7-6.9,1.6-7.6,5.1c0,0.2-0.1,0.4-0.1,0.6c-2.2,0.2-3.8,2.2-3.6,4.3c0.2,2.2,2.2,3.8,4.3,3.6c1.1-0.1,2-0.6,2.7-1.4
			c0.1,0,0.2,0.1,0.3,0.1c0.9,2.7,3.8,4.3,6.6,3.4c1.1-0.3,2-1,2.6-1.9c0.2,0.1,0.4,0.1,0.7,0.2c2.4,2.5,6.3,2.7,8.9,0.3
			c0.3-0.3,0.5-0.5,0.8-0.8c1.9,0.7,4.1,0.4,5.8-0.7c1.7,1,3.9,0.4,4.8-1.3c1-1.7,0.4-3.9-1.3-4.8C36,59.7,35.8,59.6,35.6,59.6
			L35.6,59.6z"/>
		<path class="st1" d="M98.1,10.3c-0.4-3.4-3.5-5.8-6.9-5.4c-0.1,0-0.2,0-0.3,0c-2.2-4.4-7.5-6.2-11.9-4c-1.6,0.8-2.9,2-3.8,3.6
			C72,3.8,68.8,6,68.2,9.2c0,0.2-0.1,0.3-0.1,0.5c-2,0.2-3.5,2-3.3,4.1c0.2,2,2,3.5,4.1,3.3c1-0.1,1.9-0.6,2.5-1.4
			c0.1,0,0.2,0.1,0.2,0.1c0.8,2.6,3.6,4,6.1,3.2c1-0.3,1.9-0.9,2.5-1.8c0.2,0.1,0.4,0.1,0.6,0.2c2.2,2.4,5.9,2.5,8.3,0.3
			c0.3-0.2,0.5-0.5,0.7-0.8c1.8,0.6,3.8,0.4,5.4-0.7c1.6,0.9,3.6,0.3,4.5-1.3c0.9-1.6,0.3-3.6-1.3-4.5
			C98.4,10.5,98.2,10.4,98.1,10.3L98.1,10.3z"/>
		<path class="st1" d="M166.7,71.6c-0.4-3.2-3.2-5.4-6.4-5.1c-0.1,0-0.2,0-0.2,0c-2-4.1-7-5.8-11.1-3.8c-1.5,0.7-2.7,1.9-3.5,3.3
			c-3.1-0.6-6,1.4-6.6,4.4c0,0.2-0.1,0.3-0.1,0.5c-1.9,0.2-3.3,1.9-3.1,3.8c0.2,1.9,1.9,3.3,3.8,3.1c0.9-0.1,1.8-0.5,2.3-1.3
			c0.1,0,0.1,0.1,0.2,0.1c0.8,2.4,3.3,3.7,5.7,2.9c0.9-0.3,1.7-0.9,2.3-1.7c0.2,0.1,0.4,0.1,0.6,0.2c2.1,2.2,5.5,2.4,7.7,0.3
			c0.2-0.2,0.5-0.5,0.7-0.7c1.7,0.6,3.6,0.4,5.1-0.6c1.5,0.9,3.4,0.3,4.2-1.1s0.3-3.4-1.1-4.2C167.1,71.7,166.9,71.6,166.7,71.6
			L166.7,71.6z"/>
	</g>
	<ellipse class="st2" cx="136.3" cy="196.9" rx="85.5" ry="9.6"/>
	<g transform="translate(88.352 79.981)">
		<g transform="translate(0 0)">
			<path class="st3" d="M4.1-27.5h92.2c7.3,0,13.2,5.9,13.2,13.2v119c0,7.3-5.9,13.2-13.2,13.2H4.1c-7.3,0-13.2-5.9-13.2-13.2v-119
				C-9.1-21.6-3.2-27.5,4.1-27.5z"/>
			<path class="st4" d="M2-25.9h96.4c5.2,0,9.5,4.3,9.5,9.5v123.2c0,5.2-4.3,9.5-9.5,9.5H2c-5.2,0-9.5-4.3-9.5-9.5V-16.4
				C-7.5-21.6-3.3-25.9,2-25.9z"/>
			<rect x="-2.4" y="-14.7" class="st5" width="99.5" height="125.4"/>
			<rect x="0.5" y="-17.2" class="st6" width="99.5" height="125.4"/>
			<g transform="translate(18.471 19.618)">
				<path class="st7" d="M16.1-2H-4.7v-20.8h20.8L16.1-2z M-3.8-2.9h19v-19h-19L-3.8-2.9z"/>
				<rect x="27" y="-16.5" class="st7" width="33.2" height="2.2"/>
				<rect x="27" y="-10.6" class="st7" width="33.2" height="2.2"/>
				<g transform="translate(0 31.949)">
					<path class="st7" d="M16.1,5.5H-4.7v-20.8h20.8L16.1,5.5z M-3.8,4.7h19v-19h-19L-3.8,4.7z"/>
					<rect x="27" y="-8.9" class="st7" width="33.2" height="2.2"/>
					<rect x="27" y="-3" class="st7" width="33.2" height="2.2"/>
				</g>
				<g transform="translate(0 63.898)">
					<path class="st7" d="M16.1,13.1H-4.7V-7.7h20.8L16.1,13.1z M-3.8,12.2h19v-19h-19L-3.8,12.2z"/>
					<rect x="27" y="-1.3" class="st7" width="33.2" height="2.2"/>
					<rect x="27" y="4.6" class="st7" width="33.2" height="2.2"/>
				</g>
			</g>
		</g>
		<path class="st8" d="M16.2,6c3.8,1.7,6.9,7.2,6.9,7.2S29.6,1.7,36.7-1.2L34-3.7c0,0-9,7-10.6,14.2c0,0-2.7-5.6-5.9-7.5L16.2,6z"/>
		<path class="st8" d="M16.2,46.7c3.8,1.7,6.9,7.2,6.9,7.2s6.5-11.6,13.6-14.5L34,37c0,0-9,7-10.6,14.2c0,0-2.7-5.6-5.9-7.5
			L16.2,46.7z"/>
	</g>
	<g transform="translate(66.272 132.793)">
		<g transform="translate(0 10.182)">
			<path class="st4" d="M43.3-4.8L-8.5,37.7c-1.1,0.9-2.7,0.7-3.6-0.3c0,0,0,0,0,0l-1.7-2c-0.9-1.1-0.7-2.7,0.4-3.6l51.9-42.5
				L43.3-4.8z"/>
			<path class="st9" d="M38.5-10.8l8.8-1.8l-3.9,7.7L38.5-10.8z"/>
			<path class="st10" d="M41.7-6.8l5.5-5.8l-3.9,7.7L41.7-6.8z"/>
			<path class="st4" d="M43.3-11.8l3.9-0.8l-1.7,3.4L43.3-11.8z"/>
			<path class="st11" d="M41.7-6.8L41.7-6.8l-54.2,43.7l0.4,0.4c0.9,1.1,2.5,1.2,3.6,0.4c0,0,0,0,0,0L43.3-4.8L41.7-6.8z"/>
		</g>
		<path class="st12" d="M-4.3,25.6c0,0,0,0.2-0.1,0.5C-5.5,32.2-5.7,38.4-5,44.6c1.3,9.6-0.9,21-0.9,21l3.7,0.2c0,0,2.1-6.7,3.5-14
			C2.3,46,2.8,40,3,34.1l1.2,0.2c0,0,3.8,21.5,2.1,30.2l3.5-0.5c0,0,5.2-19.3,0.9-35.3"/>
		<path class="st13" d="M-4.4,26.1C-5.5,32.2-5.7,38.4-5,44.6c1.3,9.6-0.9,21-0.9,21l2.1,0.1c1.3-6.6,2-13.3,2.1-20
			c0-6.2,0.4-12.4,1.4-18.6l-2-1.2l-2.1-0.4C-4.3,25.6-4.4,25.7-4.4,26.1z"/>
		<path class="st8" d="M6.2,0C0.3,7.3-3.4,16.2-4.3,25.6c0,0,10.6,5,16.9,2.5c0,0,0.4-9.6,0.3-11.7c0,0,10.8,4.3,18.6-1.5
			c0-1-0.2-1.9-0.8-2.7c0,0-12.8,3.8-18-4.6c0,0-1.2-4.3-3-5.1C8.5,1.7,7.3,0.9,6.2,0z"/>
		<path class="st14" d="M6.2,0C0.3,7.3-3.4,16.2-4.3,25.6c1.3,0.6,2.7,1.1,4.1,1.6C0.4,18,3,9,7.6,1C6.8,0.5,6.2,0,6.2,0z"/>
		<circle class="st9" cx="11.6" cy="-5" r="7.9"/>
		<path class="st10" d="M11.3-3.4c0-3.4,1.8-6.5,4.8-8.1c-3.6-2.5-8.5-1.5-11,2c-2.5,3.6-1.5,8.5,2,11c1.9,1.3,4.2,1.7,6.4,1.1
			C12.1,0.9,11.3-1.2,11.3-3.4z"/>
		<path class="st15" d="M16.7-10.9c0,0,0.4,5.3-4,7.2c-4.7,2-2.6,6.5-1.3,7.7c0,0-11.7-3.2-8.9-12.2c3.1-9.8,13.7-6.9,15.7-3.3
			c1.5,2.8,0.9,4.2,0.9,4.2C18.8-8.8,17.9-10,16.7-10.9z"/>
		<path class="st9" d="M30.8,12.1c0,0,2.9-4.2,3.2-3.3c0.3,0.9-0.7,2.9-0.7,2.9c1.6-0.2,3.1-0.8,4.4-1.8c0,0-1.5,6.2-6.1,5
			C31.5,13.9,31.3,13,30.8,12.1z"/>
		<path class="st16" d="M9.8,63.9c0,0,5.3-0.7,5.9,2.2C16.4,69.1,6,67,6,67l0.3-2.5L9.8,63.9z"/>
		<path class="st16" d="M-2.2,65.8c0,0,5.8,2.6,4.6,4.3s-9.3,0-9.3,0l0.9-4.5L-2.2,65.8z"/>
		<path class="st17" d="M8,10.4c-0.1,3.8,4.9,6,4.9,6s10.8,4.3,18.6-1.5c0,0-0.1-0.6-0.2-1.1C19.8,20.1,8,10.4,8,10.4z"/>
		<path class="st10" d="M31.6,14.9c1.9,0.5,3.9-0.3,4.8-2.1c-1.5,0.9-3.3,1.3-5,0.9l0,0C31.5,14.1,31.6,14.5,31.6,14.9z"/>
		<g transform="translate(14.018 38.285)">
			<path class="st13" d="M-11-4.2L-9.8-4c0,0,3.8,21.5,2.1,30.2l1.6-0.2C-3.5,13.5-6.4-5.9-6.4-5.9L-11-4.2z"/>
		</g>
		<path class="st18" d="M-3.7,65.7L-3.7,65.7l-2.1-0.1l-0.9,4.5c0,0,2,0.4,4.1,0.6C-3.9,69.4-4.3,67.5-3.7,65.7z"/>
		<path class="st18" d="M7.9,64.2l-1.6,0.2L6,67c0,0,1.4,0.3,3.1,0.5C8.5,66.5,8.1,65.4,7.9,64.2z"/>
		<path class="st19" d="M11.3,3.9c-0.1-0.1-0.2-0.3-0.3-0.4v0c-0.1-0.1-0.1-0.2-0.2-0.3C8.6-0.1,8.2-4.4,9.9-8C7.8-6.9,6-3.7,6-3.7
			c-1.4-3.7-0.6-7.9,2-10.8c-2.7,1-4.8,3.4-5.5,6.2C-0.1,0.2,10,3.5,11.3,3.9z"/>
	</g>
	<g transform="translate(167.975 154.968)">
		<path class="st8" d="M40.9,7.4c0,0,10.6,6.5,13.1,25.2c0,0-12.9,0.8-14.7,0.5c0,0-0.6-10.7-1.9-13.9c0,0-8.3,7.2-10.9,7.2
			c-2.6,0-9.7-7-9.7-7l3.3-2.2c0,0,6.4,4.8,7.7,4.2c1.3-0.7,5.8-8.6,9.3-10c0.7-1.2,0.9-2.6,0.3-3.9L40.9,7.4z"/>
		<g transform="translate(5.6 13.832)">
			<path class="st20" d="M34.3-5.7c0,0,11,12.1,10.6,24.6c0,0,0,0,0,0.1c2-0.1,3.4-0.2,3.4-0.2C45.9,0.1,35.3-6.4,35.3-6.4l-1.1,0.1
				L34.3-5.7z"/>
			<path class="st20" d="M11.1,5.7c0,0,7.1,7,9.7,7c2.6,0,10.9-7.2,10.9-7.2v0l0.1-0.5c0,0,2.3-2,1.5-4.2c0,0-9.5,10.8-12.2,10.2
				c-2.1-0.5-6.5-4.6-8.4-6.4L11.1,5.7z"/>
		</g>
		<circle class="st9" cx="35" cy="1.4" r="7.9"/>
		<path class="st10" d="M35.5-6.4c3.6,2.5,4.4,7.4,1.9,11C36,6.7,33.6,7.9,31,7.9c-0.2,0-0.3,0-0.5,0c3.6,2.5,8.5,1.6,11-1.9
			c2.5-3.6,1.6-8.5-1.9-11C38.4-5.8,37-6.3,35.5-6.4L35.5-6.4z"/>
		<path class="st21" d="M41.9-5c-0.5-2.2-2.7-3.6-4.9-3c0,0-0.1,0-0.1,0c-3,0.7-6.9,3.3-7.8,0.6c0,0-2,1.7,0,4.8s7,4.6,9.2,2.8
			c-0.5,1.3-0.4,2.8,0.2,4c0.6,1.3,0.8,2.7,0.5,4.1c3-0.2,5.6-2.4,6.2-5.4C46.4-2.1,43.4-5.3,41.9-5z"/>
		<path class="st9" d="M16.7,19.5c0,0-6.7,1.1-6.9,0.1c-0.2-1,5.6-1.5,6.9-2.9c1.3-1.4,0.9-4.4,1.8-3.8c0.9,0.6,1.5,4.4,1.5,4.4
			L16.7,19.5z"/>
		<path class="st22" d="M39.2,33.1l0.1,1.3c0,0-16.5-0.2-18,3.2c-1.5,3.3,3.9,7.7,12,7.7c8.1,0,19.6-0.2,20.6-3.9s0-8.8,0-8.8
			L39.2,33.1z"/>
		<path class="st10" d="M17.8,18.8l2.2-1.4c0,0-0.6-3.9-1.5-4.4c-0.1-0.1-0.3-0.1-0.4,0c0,0,0,0,0,0c0.6,1.3,0.8,2.9,0.4,4.3
			C18.3,17.8,18.1,18.3,17.8,18.8z"/>
		<path class="st19" d="M43.3,2.4L41-0.9c0.8,3,0.4,6.3-1.1,9c2.7-0.5,4.7-2.6,5.3-5.2c0.7-2.3,0.2-4.8-1.2-6.8
			C44.4-1.8,44.1,0.4,43.3,2.4z"/>
		<path class="st19" d="M54,32.6l-3.4,0.1c0.7,2.4,1,4.8-0.6,6.2c-3.6,3.2-15.5,1.6-21.8,1.8c-2.4,0.1-4.9-0.5-7.1-1.5
			c0.5,3,5.4,6.1,12.2,6.1c8.1,0,19.6-0.2,20.6-3.9C55,37.8,54,32.6,54,32.6z"/>
	</g>
</g>
</svg>
