<?xml version="1.0" encoding="utf-8"?>
<!-- Generator: Adobe Illustrator 25.1.0, SVG Export Plug-In . SVG Version: 6.00 Build 0)  -->
<svg version="1.1" id="Layer_1" xmlns="http://www.w3.org/2000/svg" xmlns:xlink="http://www.w3.org/1999/xlink" x="0px" y="0px"
	 viewBox="0 0 359 335.3" style="enable-background:new 0 0 359 335.3;" xml:space="preserve">
<style type="text/css">
	.st0{fill:#FFFFFF;}
	.st1{fill:url(#SVGID_1_);}
	.st2{clip-path:url(#SVGID_3_);}
	.st3{fill:#FAF9FA;}
	.st4{fill:#005777;}
	.st5{font-family:'Poppins-SemiBold';}
	.st6{font-size:20px;}
	.st7{fill:url(#SVGID_4_);}
	.st8{clip-path:url(#SVGID_6_);}
	.st9{font-size:22px;}
	.st10{display:none;}
	.st11{display:inline;fill:#FFFFFF;}
	.st12{fill:url(#SVGID_7_);}
	.st13{clip-path:url(#SVGID_9_);}
</style>
<g transform="translate(-690.725 -444.496)">
	<g transform="translate(782.866 444.496)">
		<g transform="translate(0 0)">
			
				<image style="display:none;overflow:visible;opacity:0.5;enable-background:new    ;" width="998" height="1012" xlink:href="CE70ED58.png"  transform="matrix(0.2215 0 0 0.2215 0 4.577637e-05)">
			</image>
			<g transform="translate(9.827 8.801)">
				<path class="st0" d="M86.3,191.3c6.5,6.5,17.1,6.5,23.6,0l81.4-81.4c6.5-6.5,6.5-17.1,0-23.6L109.9,4.9
					c-6.5-6.5-17.1-6.5-23.6,0L4.9,86.3c-6.5,6.5-6.5,17,0,23.5l0,0L86.3,191.3z"/>
			</g>
			<g transform="translate(9.827 7.646)">
				
					<linearGradient id="SVGID_1_" gradientUnits="userSpaceOnUse" x1="-1756.1711" y1="5.7373" x2="-1754.4501" y2="4.2464" gradientTransform="matrix(196.2205 0 0 196.2132 344365.1562 -742.0035)">
					<stop  offset="0" style="stop-color:#F7931E"/>
					<stop  offset="0.995" style="stop-color:#E07D2B"/>
				</linearGradient>
				<path class="st1" d="M86.3,191.3c6.5,6.5,17.1,6.5,23.6,0l81.4-81.4c6.5-6.5,6.5-17.1,0-23.6L109.9,4.9
					c-6.5-6.5-17.1-6.5-23.6,0L4.9,86.3c-6.5,6.5-6.5,17,0,23.5l0,0L86.3,191.3z"/>
			</g>
		</g>
		<g transform="translate(31.059 29.485)">
			<g>
				<g>
					<defs>
						<path id="SVGID_2_" d="M67.3,149.2c5.1,5.1,13.3,5.1,18.4,0l0,0l63.5-63.5c5.1-5.1,5.1-13.3,0-18.4L85.7,3.8
							c-5.1-5.1-13.3-5.1-18.4,0l0,0L3.8,67.3c-5.1,5.1-5.1,13.3,0,18.4l0,0L67.3,149.2z"/>
					</defs>
					<clipPath id="SVGID_3_">
						<use xlink:href="#SVGID_2_"  style="overflow:visible;"/>
					</clipPath>
					<g class="st2">
						<g transform="translate(-14.447 -25.72)">
							<g transform="translate(14.447 25.72)">
								<path class="st3" d="M67.3,149.2c5.1,5.1,13.3,5.1,18.4,0l0,0l63.5-63.5c5.1-5.1,5.1-13.3,0-18.4L85.7,3.8
									c-5.1-5.1-13.3-5.1-18.4,0l0,0L3.8,67.3c-5.1,5.1-5.1,13.3,0,18.4l0,0L67.3,149.2z"/>
							</g>
							<g>
								
									<image style="overflow:visible;enable-background:new    ;" width="878" height="899" id="g" xlink:href="CE70ED59.png"  transform="matrix(0.2215 0 0 0.2215 1.768991e-04 0)">
								</image>
							</g>
							<g>
								
									<image style="overflow:visible;enable-background:new    ;" width="878" height="899" id="g_2_" xlink:href="CE70ED5F.png"  transform="matrix(0.2215 0 0 0.2215 1.768991e-04 0)">
								</image>
							</g>
						</g>
					</g>
				</g>
			</g>
		</g>
		<text transform="matrix(1 0 0 1 98.079 82)" class="st4 st5 st6">10+</text>
		<text transform="matrix(1 0 0 1 70.829 112)" class="st4 st5 st6">Rewards</text>
	</g>
	<g transform="translate(828.493 555.686)">
		<g transform="translate(0)">
			
				<image style="display:none;overflow:visible;opacity:0.5;enable-background:new    ;" width="999" height="1012" xlink:href="CE70ED5A.png"  transform="matrix(0.2215 0 0 0.2215 0 3.050234e-04)">
			</image>
			<g transform="translate(9.87 8.795)">
				<path class="st0" d="M86.3,191.3c6.5,6.5,17.1,6.5,23.6,0l81.4-81.4c6.5-6.5,6.5-17.1,0-23.6L109.9,4.9
					c-6.5-6.5-17.1-6.5-23.6,0L4.9,86.3c-6.5,6.5-6.5,17,0,23.5l0,0L86.3,191.3z"/>
			</g>
			<g transform="translate(9.87 7.641)">
				
					<linearGradient id="SVGID_4_" gradientUnits="userSpaceOnUse" x1="-1847.7759" y1="5.9675" x2="-1846.0558" y2="4.4765" gradientTransform="matrix(196.2176 0 0 196.2136 362282.5938 -741.9821)">
					<stop  offset="0" style="stop-color:#F7931E"/>
					<stop  offset="0.995" style="stop-color:#E07D2B"/>
				</linearGradient>
				<path class="st7" d="M86.3,191.3c6.5,6.5,17.1,6.5,23.6,0l81.4-81.4c6.5-6.5,6.5-17.1,0-23.6L109.9,4.9
					c-6.5-6.5-17.1-6.5-23.6,0L4.9,86.3c-6.5,6.5-6.5,17,0,23.5l0,0L86.3,191.3z"/>
			</g>
		</g>
		<g transform="translate(31.102 29.48)">
			<g>
				<g>
					<defs>
						<path id="SVGID_5_" d="M67.3,149.2c5.1,5.1,13.3,5.1,18.4,0l0,0l63.5-63.5c5.1-5.1,5.1-13.3,0-18.4L85.7,3.8
							c-5.1-5.1-13.3-5.1-18.4,0l0,0L3.8,67.3c-5.1,5.1-5.1,13.3,0,18.4l0,0L67.3,149.2z"/>
					</defs>
					<clipPath id="SVGID_6_">
						<use xlink:href="#SVGID_5_"  style="overflow:visible;"/>
					</clipPath>
					<g class="st8">
						<g transform="translate(-14.269 -25.715)">
							<g transform="translate(14.269 25.715)">
								<path class="st3" d="M67.3,149.2c5.1,5.1,13.3,5.1,18.4,0l0,0l63.5-63.5c5.1-5.1,5.1-13.3,0-18.4L85.7,3.8
									c-5.1-5.1-13.3-5.1-18.4,0l0,0L3.8,67.3c-5.1,5.1-5.1,13.3,0,18.4l0,0L67.3,149.2z"/>
							</g>
							<g>
								
									<image style="overflow:visible;enable-background:new    ;" width="878" height="899" id="h" xlink:href="CE70ED5B.png"  transform="matrix(0.2215 0 0 0.2215 1.766771e-04 0)">
								</image>
							</g>
							<g>
								
									<image style="overflow:visible;enable-background:new    ;" width="878" height="899" id="h_2_" xlink:href="CE70ED56.png"  transform="matrix(0.2215 0 0 0.2215 1.766771e-04 0)">
								</image>
							</g>
						</g>
					</g>
				</g>
			</g>
		</g>
		<text transform="matrix(1 0 0 1 89.459 95.811)" class="st4 st5 st9">25+</text>
		<text transform="matrix(1 0 0 1 65.831 128.811)" class="st4 st5 st9">Surveys</text>
	</g>
	<g transform="translate(690.725 510.058)">
		<g transform="translate(0 0)">
			
				<image style="display:none;overflow:visible;opacity:0.5;enable-background:new    ;" width="998" height="1012" xlink:href="CE70ED57.png"  transform="matrix(0.2215 0 0 0.2215 0 4.521387e-05)">
			</image>
			<g transform="translate(9.679 8.808)" class="st10">
				<path class="st11" d="M86.3,191.3c6.5,6.5,17.1,6.5,23.6,0l81.4-81.4c6.5-6.5,6.5-17.1,0-23.6L109.9,4.9
					c-6.5-6.5-17.1-6.5-23.6,0L4.9,86.3c-6.5,6.5-6.5,17,0,23.5l0,0L86.3,191.3z"/>
			</g>
			<g transform="translate(9.679 7.654)">
				
					<linearGradient id="SVGID_7_" gradientUnits="userSpaceOnUse" x1="-1571.0552" y1="5.2716" x2="-1569.3352" y2="3.7806" gradientTransform="matrix(196.2205 0 0 196.2126 308147.1875 -741.9704)">
					<stop  offset="0" style="stop-color:#F7931E"/>
					<stop  offset="0.995" style="stop-color:#E07D2B"/>
				</linearGradient>
				<path class="st12" d="M86.3,191.3c6.5,6.5,17.1,6.5,23.6,0l81.4-81.4c6.5-6.5,6.5-17.1,0-23.6L109.9,4.9
					c-6.5-6.5-17.1-6.5-23.6,0L4.9,86.3c-6.5,6.5-6.5,17,0,23.5l0,0L86.3,191.3z"/>
			</g>
		</g>
		<g transform="translate(30.912 29.494)">
			<g>
				<g>
					<defs>
						<path id="SVGID_8_" d="M67.3,149.2c5.1,5.1,13.3,5.1,18.4,0l0,0l63.5-63.5c5.1-5.1,5.1-13.3,0-18.4L85.7,3.8
							c-5.1-5.1-13.3-5.1-18.4,0l0,0L3.8,67.3c-5.1,5.1-5.1,13.3,0,18.4l0,0L67.3,149.2z"/>
					</defs>
					<clipPath id="SVGID_9_">
						<use xlink:href="#SVGID_8_"  style="overflow:visible;"/>
					</clipPath>
					<g class="st13">
						<g transform="translate(-14.3 -25.729)">
							<g transform="translate(14.3 25.729)">
								<path class="st3" d="M67.3,149.2c5.1,5.1,13.3,5.1,18.4,0l0,0l63.5-63.5c5.1-5.1,5.1-13.3,0-18.4L85.7,3.8
									c-5.1-5.1-13.3-5.1-18.4,0l0,0L3.8,67.3c-5.1,5.1-5.1,13.3,0,18.4l0,0L67.3,149.2z"/>
							</g>
							<g>
								
									<image style="overflow:visible;enable-background:new    ;" width="878" height="899" id="i" xlink:href="CE70ED68.png"  transform="matrix(0.2215 0 0 0.2215 1.744069e-04 0)">
								</image>
							</g>
							<g>
								
									<image style="overflow:visible;enable-background:new    ;" width="878" height="899" id="i_2_" xlink:href="CE70ED6B.png"  transform="matrix(0.2215 0 0 0.2215 1.744069e-04 0)">
								</image>
							</g>
						</g>
					</g>
				</g>
			</g>
		</g>
		<text transform="matrix(1 0 0 1 88.436 94.438)" class="st4 st5 st9">50+</text>
		<text transform="matrix(1 0 0 1 71.155 127.438)" class="st4 st5 st9">Clients</text>
	</g>
</g>
</svg>
