<?xml version="1.0" encoding="utf-8"?>
<!-- Generator: Adobe Illustrator 25.1.0, SVG Export Plug-In . SVG Version: 6.00 Build 0)  -->
<svg version="1.1" id="Layer_1" xmlns="http://www.w3.org/2000/svg" xmlns:xlink="http://www.w3.org/1999/xlink" x="0px" y="0px"
	 viewBox="0 0 344.5 316.5" style="enable-background:new 0 0 344.5 316.5;" xml:space="preserve">
<style type="text/css">
	.st0{fill:#FFFFFF;}
	.st1{fill:url(#SVGID_1_);}
	.st2{clip-path:url(#SVGID_3_);}
	.st3{fill:#FAF9FB;}
	.st4{fill:#015878;}
	.st5{font-family:'Poppins-SemiBold';}
	.st6{font-size:20px;}
	.st7{fill:url(#SVGID_4_);}
	.st8{clip-path:url(#SVGID_6_);}
	.st9{font-size:22px;}
	.st10{fill:url(#SVGID_7_);}
	.st11{clip-path:url(#SVGID_9_);}
</style>
<path class="st0" d="M183.7,196.3c6.5,6.5,17.1,6.5,23.6,0l81.4-81.4c6.5-6.5,6.5-17.1,0-23.6L207.3,9.9c-6.5-6.5-17.1-6.5-23.6,0
	l-81.4,81.4c-6.5,6.5-6.5,17,0,23.5l0,0L183.7,196.3z"/>
<linearGradient id="SVGID_1_" gradientUnits="userSpaceOnUse" x1="-1659.2009" y1="2.9276" x2="-1657.48" y2="1.4366" gradientTransform="matrix(196.2205 0 0 196.2132 325435.0312 -186.8146)">
	<stop  offset="0" style="stop-color:#F79421"/>
	<stop  offset="0.995" style="stop-color:#E07E2C"/>
</linearGradient>
<path class="st1" d="M183.7,195.2c6.5,6.5,17.1,6.5,23.6,0l81.4-81.4c6.5-6.5,6.5-17.1,0-23.6L207.3,8.8c-6.5-6.5-17.1-6.5-23.6,0
	l-81.4,81.4c-6.5,6.5-6.5,17,0,23.5l0,0L183.7,195.2z"/>
<g>
	<g>
		<defs>
			<path id="SVGID_2_" d="M185.9,174.9c5.1,5.1,13.3,5.1,18.4,0l0,0l63.5-63.5c5.1-5.1,5.1-13.3,0-18.4l-63.5-63.5
				c-5.1-5.1-13.3-5.1-18.4,0l0,0L122.4,93c-5.1,5.1-5.1,13.3,0,18.4l0,0L185.9,174.9z"/>
		</defs>
		<clipPath id="SVGID_3_">
			<use xlink:href="#SVGID_2_"  style="overflow:visible;"/>
		</clipPath>
		<g class="st2">
			<g transform="translate(-14.447 -25.72)">
				<g transform="translate(14.447 25.72)">
					<path class="st3" d="M185.9,174.9c5.1,5.1,13.3,5.1,18.4,0l0,0l63.5-63.5c5.1-5.1,5.1-13.3,0-18.4l-63.5-63.5
						c-5.1-5.1-13.3-5.1-18.4,0l0,0L122.4,93c-5.1,5.1-5.1,13.3,0,18.4l0,0L185.9,174.9z"/>
				</g>
				<g>
					
						<image style="overflow:visible;enable-background:new    ;" width="878" height="899" id="g" xlink:href="CE70ED59.png"  transform="matrix(0.2215 0 0 0.2215 118.6216 25.72)">
					</image>
				</g>
				<g>
					
						<image style="overflow:visible;enable-background:new    ;" width="878" height="899" id="g_2_" xlink:href="CE70ED5F.png"  transform="matrix(0.2215 0 0 0.2215 118.6216 25.72)">
					</image>
				</g>
			</g>
		</g>
	</g>
</g>
<text transform="matrix(1 0 0 1 185.6415 78.235)" class="st4 st5 st6">10+</text>
<text transform="matrix(1 0 0 1 158.3915 108.235)" class="st4 st5 st6">Rewards</text>
<path class="st0" d="M229.4,307.5c6.5,6.5,17.1,6.5,23.6,0l81.4-81.4c6.5-6.5,6.5-17.1,0-23.6L253,121.1c-6.5-6.5-17.1-6.5-23.6,0
	L148,202.5c-6.5,6.5-6.5,17,0,23.5l0,0L229.4,307.5z"/>
<linearGradient id="SVGID_4_" gradientUnits="userSpaceOnUse" x1="-1705.1357" y1="114.3427" x2="-1703.4156" y2="112.8517" gradientTransform="matrix(196.2176 0 0 196.2136 334437.1562 -21891.6094)">
	<stop  offset="0" style="stop-color:#F79421"/>
	<stop  offset="0.995" style="stop-color:#E07E2C"/>
</linearGradient>
<path class="st7" d="M229.4,306.4c6.5,6.5,17.1,6.5,23.6,0l81.4-81.4c6.5-6.5,6.5-17.1,0-23.6L253,120c-6.5-6.5-17.1-6.5-23.6,0
	L148,201.4c-6.5,6.5-6.5,17,0,23.5l0,0L229.4,306.4z"/>
<g>
	<g>
		<defs>
			<path id="SVGID_5_" d="M231.6,286.1c5.1,5.1,13.3,5.1,18.4,0l0,0l63.5-63.5c5.1-5.1,5.1-13.3,0-18.4L250,140.7
				c-5.1-5.1-13.3-5.1-18.4,0l0,0l-63.5,63.5c-5.1,5.1-5.1,13.3,0,18.4l0,0L231.6,286.1z"/>
		</defs>
		<clipPath id="SVGID_6_">
			<use xlink:href="#SVGID_5_"  style="overflow:visible;"/>
		</clipPath>
		<g class="st8">
			<g transform="translate(-14.269 -25.715)">
				<g transform="translate(14.269 25.715)">
					<path class="st3" d="M231.6,286.1c5.1,5.1,13.3,5.1,18.4,0l0,0l63.5-63.5c5.1-5.1,5.1-13.3,0-18.4L250,140.7
						c-5.1-5.1-13.3-5.1-18.4,0l0,0l-63.5,63.5c-5.1,5.1-5.1,13.3,0,18.4l0,0L231.6,286.1z"/>
				</g>
				<g>
					
						<image style="overflow:visible;enable-background:new    ;" width="878" height="899" id="h" xlink:href="CE70ED5B.png"  transform="matrix(0.2215 0 0 0.2215 164.2916 136.905)">
					</image>
				</g>
				<g>
					
						<image style="overflow:visible;enable-background:new    ;" width="878" height="899" id="h_2_" xlink:href="CE70ED56.png"  transform="matrix(0.2215 0 0 0.2215 164.2916 136.905)">
					</image>
				</g>
			</g>
		</g>
	</g>
</g>
<text transform="matrix(1 0 0 1 222.6484 203.236)" class="st4 st5 st9">25+</text>
<text transform="matrix(1 0 0 1 199.0204 236.236)" class="st4 st5 st9">Surveys</text>
<linearGradient id="SVGID_7_" gradientUnits="userSpaceOnUse" x1="-1566.374" y1="68.0319" x2="-1564.6541" y2="66.5409" gradientTransform="matrix(196.2205 0 0 196.2126 307233.75 -12986.876)">
	<stop  offset="0" style="stop-color:#F79421"/>
	<stop  offset="0.995" style="stop-color:#E07E2C"/>
</linearGradient>
<path class="st10" d="M91.4,260.8c6.5,6.5,17.1,6.5,23.6,0l81.4-81.4c6.5-6.5,6.5-17.1,0-23.6L115,74.4c-6.5-6.5-17.1-6.5-23.6,0
	L10,155.8c-6.5,6.5-6.5,17,0,23.5l0,0L91.4,260.8z"/>
<g>
	<g>
		<defs>
			<path id="SVGID_8_" d="M93.6,240.5c5.1,5.1,13.3,5.1,18.4,0l0,0l63.5-63.5c5.1-5.1,5.1-13.3,0-18.4L112,95.1
				c-5.1-5.1-13.3-5.1-18.4,0l0,0l-63.5,63.5c-5.1,5.1-5.1,13.3,0,18.4l0,0L93.6,240.5z"/>
		</defs>
		<clipPath id="SVGID_9_">
			<use xlink:href="#SVGID_8_"  style="overflow:visible;"/>
		</clipPath>
		<g class="st11">
			<g transform="translate(-14.3 -25.729)">
				<g transform="translate(14.3 25.729)">
					<path class="st3" d="M93.6,240.5c5.1,5.1,13.3,5.1,18.4,0l0,0l63.5-63.5c5.1-5.1,5.1-13.3,0-18.4L112,95.1
						c-5.1-5.1-13.3-5.1-18.4,0l0,0l-63.5,63.5c-5.1,5.1-5.1,13.3,0,18.4l0,0L93.6,240.5z"/>
				</g>
				<g>
					
						<image style="overflow:visible;enable-background:new    ;" width="878" height="899" id="i" xlink:href="CE70ED68.png"  transform="matrix(0.2215 0 0 0.2215 26.3336 91.291)">
					</image>
				</g>
				<g>
					
						<image style="overflow:visible;enable-background:new    ;" width="878" height="899" id="i_2_" xlink:href="CE70ED6B.png"  transform="matrix(0.2215 0 0 0.2215 26.3336 91.291)">
					</image>
				</g>
			</g>
		</g>
	</g>
</g>
<text transform="matrix(1 0 0 1 83.8574 156.235)" class="st4 st5 st9">50+</text>
<text transform="matrix(1 0 0 1 66.5764 189.235)" class="st4 st5 st9">Clients</text>
</svg>
