<svg xmlns="http://www.w3.org/2000/svg" xmlns:xlink="http://www.w3.org/1999/xlink" width="170.98" height="123.499" viewBox="0 0 170.98 123.499"><defs><linearGradient id="a" x1="-21.874" y1="-19.976" x2="-21.86" y2="-19.976" gradientUnits="objectBoundingBox"><stop offset="0" stop-color="#e7b2b6"/><stop offset="0.083" stop-color="#e7b2b6"/><stop offset="0.966" stop-color="#ca8d94"/><stop offset="1" stop-color="#c98c93"/></linearGradient><linearGradient id="b" x1="-41.11" y1="-19.856" x2="-41.095" y2="-19.856" xlink:href="#a"/></defs><g transform="translate(-1630.971 -431.48)"><g transform="translate(1619.461 418.71)"><ellipse cx="85.49" cy="9.615" rx="85.49" ry="9.615" transform="translate(11.51 117.039)" fill="#efefef"/><path d="M1910.14,1394.176l1.4,5.905,2.1-.012.077-5.893Z" transform="translate(-1874.702 -1275.253)" fill="#e7b2b6"/><path d="M1912.607,1438.317a2.341,2.341,0,0,0-2.467,2.314H1915A2.255,2.255,0,0,0,1912.607,1438.317Z" transform="translate(-1874.702 -1314.01)" fill="#ff7657"/><path d="M2059.646,1390.642l3.427,5.653,2.1-.012-1.691-6.419Z" transform="translate(-2005.982 -1271.468)" fill="#e7b2b6"/><path d="M2078.725,1438.317a2.341,2.341,0,0,0-2.467,2.314h4.857A2.256,2.256,0,0,0,2078.725,1438.317Z" transform="translate(-2020.568 -1314.01)" fill="#ff7657"/><path d="M1839.314,746.925c-3.79,0-4.425,6.237-4.327,7.826.109,1.793-1.761,2.378-4.488,3.791-5.2,2.7-5.661,6.305-5.661,6.305.041.024.083.051.128.082.258-.438.789-1.259,1.238-1.383a18.519,18.519,0,0,0-.721,1.756c1.535,1.168,4.406,3.755,6.408,5.59a2.941,2.941,0,0,1,.136-1.136l.247,1.489c1.071.985,1.809,1.677,1.809,1.677a1.7,1.7,0,0,1,.238-.787q-.011-.164-.024-.327a40.222,40.222,0,0,0-1.841-9.09,12.078,12.078,0,0,1,5.441-1.994,2.451,2.451,0,0,0,2.1,1.116h.082a2.685,2.685,0,0,0,2.33-1.26c.962.026,1.663.06,2.167.093a12.182,12.182,0,0,0,.718-2.768,11.648,11.648,0,0,1-.509,2.782l.224.017c2.343-3.241.7-12.086-1.116-13.12a3.823,3.823,0,0,0-1.87-.431c-.117,0-.228,0-.332.01a1.031,1.031,0,0,1,.464-.22.59.59,0,0,0-.085-.006,3.924,3.924,0,0,0-1.133.323,4.537,4.537,0,0,0-1.628-.334Z" transform="translate(-1799.8 -706.911)" fill="#212529"/><path d="M1934.572,840.3c-.485-.226-.186-4.351-.186-4.351l-4.02-.2c-.285,1.351-.223,3.1-.733,3.2a3.85,3.85,0,0,0,1.973,1.893A4.831,4.831,0,0,0,1934.572,840.3Z" transform="translate(-1891.819 -784.912)" fill="url(#a)"/><path d="M1936.491,759.952a3.1,3.1,0,0,1,4.3.362A16.8,16.8,0,0,0,1936.491,759.952Z" transform="translate(-1897.841 -717.726)" fill="#ff7657"/><path d="M1920.032,769.822a16.978,16.978,0,0,1-.8-2.876c-.195-1.1.364-5.16,4.447-4.574a5.546,5.546,0,0,1,2.3.87c.887.6,2.166,1.892.735,5.438l-.372,1.2Z" transform="translate(-1882.657 -720.424)" fill="#212529"/><path d="M1931.378,791.643c-1.135.934-2.553,2.185-5.2-.525-.518-.53-.424-1.278-.376-2.359a18.155,18.155,0,0,1,.006-2.809c.236-.868,1.018-1.209,2.591-1.228,2.887-.034,4.289.721,3.99,2.13C1931.717,790,1932.532,790.693,1931.378,791.643Z" transform="translate(-1888.389 -740.099)" fill="#e7b2b6"/><path d="M1914.632,779.092c-.438-.487-2.095-.039-2.729.155h0c-.867-1.459-3.456-.338-3.967.477a2.719,2.719,0,0,1-2.584,1.368,3.627,3.627,0,0,0,3.208,1.105c1.558-.4,2.972-2.395,3.28-2.854.452.044,1.586.2,1.862.674a10.931,10.931,0,0,1,.523,1.573,1.239,1.239,0,0,1,.113.693S1915.174,779.693,1914.632,779.092Z" transform="translate(-1870.498 -734.671)" fill="#212529"/><path d="M1878.788,1093.314h-5.633c-4.434-20.152-4.79-31.863-4.306-38.147.35-4.551,1.156-6.149,1.156-6.149l8.752-.105s.238,44.4.031,44.4Z" transform="translate(-1838.301 -972.083)" fill="#565557"/><path d="M1937.876,1093.379h-5.855s-7.474-15.325-12.579-28.809c-2.325-6.142-4.158-11.9-4.57-15.657h9.892s11.893,37.818,13.112,44.466Z" transform="translate(-1878.857 -972.083)" fill="#5b5b5b"/><path d="M1964.033,1166.626s-7.474-15.325-12.579-28.809c-.145-1.869-.389-4.554.783-5.487C1952.237,1132.33,1964.69,1155.387,1964.033,1166.626Z" transform="translate(-1910.87 -1045.33)" fill="#212529"/><path d="M1876.818,1138.361h-3.664c-4.434-20.152-4.79-31.863-4.306-38.147C1869.948,1105.814,1876.234,1137.724,1876.818,1138.361Z" transform="translate(-1838.301 -1017.129)" fill="#212529"/><path d="M1894.637,870.948c0,.192,0,.384,0,.577a103.22,103.22,0,0,1-1.047,13.445,44.2,44.2,0,0,1-9.059-.585l-.251-.059c-1.786-.44-5.947-1.788-5.947-1.788.106-.278.172-.557.275-.812,1.336-3.334,2.351-4.8,2.51-5.82a25.263,25.263,0,0,0,.154-5.76,40.214,40.214,0,0,0-1.84-9.09,11.884,11.884,0,0,1,5.393-1.989,2.54,2.54,0,0,0,2.233,1.11,2.434,2.434,0,0,0,2.193-1.26,29.651,29.651,0,0,1,3.5.212c1.142,2.3,1.657,5.66,1.825,9.194.042.869.061,1.749.064,2.626Z" transform="translate(-1846.774 -805.249)" fill="#eb6f53"/><path d="M2005.27,868.744s-6.31-7.5-8.695-7.691l.408,5.728,7.488,6.6,10.9-7.409-1.1-.825Z" transform="translate(-1950.6 -807.125)" fill="#e7b2b6"/><path d="M2000.913,863.261s-2.317,3.795-2.34,4.835l-1.782-1.137-.215-6.3S1997.582,860.745,2000.913,863.261Z" transform="translate(-1950.6 -806.779)" fill="#ff7657"/><path d="M1885.994,912.138c-.531,0-1.177,2.005-1.225,2.176,0,0-.648,1.043-1.516,2.565.06.759.094,1.536.094,2.319a22.73,22.73,0,0,1-.248,3.441c-.158,1.025-1.173,2.487-2.51,5.82,2.594-.588,3.636-5.266,4.18-6.035a16.752,16.752,0,0,0,1.8-8.787c-.129-1.11-.341-1.5-.575-1.5Z" transform="translate(-1848.754 -851.982)" fill="#ff7657"/><path d="M1937.405,936.071c-.39,2.207-4.177,13.521-10.293,16l.251.059a37.7,37.7,0,0,0,7.369.612c1.022,0,1.69-.026,1.69-.026a103.259,103.259,0,0,0,1.047-13.445c0-.1,0-.193,0-.289s0-.192,0-.288h0c0-.878-.024-1.758-.063-2.626Z" transform="translate(-1889.605 -872.998)" fill="#ff7657"/><path d="M1896.45,889.658a2.268,2.268,0,0,0-2.786-.915l-2.477-2.9c-2.239-2.652-5.2-6.253-5.318-6.862-.052-.275.584-13.407.584-13.407a19.6,19.6,0,0,0-3.746,1.34s-2.844,2.726-.094,14.33c0,0,3.66,3.285,6.693,5.823h0c1.214,1.016,2.326,1.911,3.063,2.429l.5.4a2.735,2.735,0,0,0,2.116.724c.892-.161.67-.038,1.305-.139S1896.45,889.658,1896.45,889.658Z" transform="translate(-1849.479 -811.095)" fill="#e7b2b6"/><path d="M1879.107,866.84c-.005.375,3.19.463,5.162,1.445l1.23-8.141a44.284,44.284,0,0,0-5.393,1.989,10.106,10.106,0,0,0-1,4.707Z" transform="translate(-1847.448 -806.327)" fill="#ff7657"/><path d="M2608.775,759.937c-2.381,1.5-4.958,20.765-4.958,20.765-2.121.9-6.31-.045-10.2-1.323.332-.638,1.048-1.707,1.077-1.749-.373.255-1.26.974-1.867,1.484-2.218-.76-4.282-1.6-5.734-2.217a10.771,10.771,0,0,1,1.719-5.121,10.989,10.989,0,0,0-3.137,4.5c-.44-.2-.687-.313-.687-.313.052-.475,1.076-7.5,7.511-10.759,4.685-2.372,5.719-8.455,7.818-12.344,2.527-4.679,6.134-4.172,6.134-4.172C2612.4,748.321,2613.318,757.069,2608.775,759.937Z" transform="translate(-2467.276 -708.447)" fill="#212529"/><path d="M2744.55,836.033c-.485-.226-.289-3.355-.289-3.355l-4.02-.2c-.285,1.351-.213,2.817-.723,2.918-.017,0,.76,1.846,1.964,2.174C2742.763,837.92,2744.568,836.041,2744.55,836.033Z" transform="translate(-2602.969 -782.035)" fill="url(#b)"/><path d="M2739.244,783.132c-1.135.934-2.553,2.185-5.2-.525-.519-.53-.425-1.278-.376-2.359a18.041,18.041,0,0,1,.006-2.809c.235-.868,1.018-1.209,2.59-1.228,2.888-.034,4.289.721,3.99,2.13C2739.583,781.486,2740.4,782.182,2739.244,783.132Z" transform="translate(-2597.765 -732.626)" fill="#e7b2b6"/><path d="M2790.065,863.626a17.634,17.634,0,0,1,2.89.77c1.707.975,6.155,9.5,7.161,12.613,0,0,1.615.383-8.113,10.131l-.817-1.44a86.534,86.534,0,0,1,5.071-8.507s-2.88-4.39-3.488-6.585S2790.065,863.626,2790.065,863.626Z" transform="translate(-2647.352 -809.385)" fill="#e7b2b6"/><path d="M2639.523,664.126c-.151-.105-1.8-15.044-1.8-15.044a2.489,2.489,0,0,0,1.479-2.763s-.193-.844-.7-.452-.269.315-1,.852a2.734,2.734,0,0,0-.93,2.034s-.057.771-.144,1.969v.005c-.277,3.817-.856,11.959-.856,13.342,0,1.817,6.522,10.681,6.522,10.681l2.764-3.957S2639.674,664.231,2639.523,664.126Z" transform="translate(-2511.692 -618.083)" fill="#e7b2b6"/><path d="M2722.848,765.409c-.726-.863-2.389.181-3.085.682-.41-.153-3.125-1.107-4.757-.257-1.768.922-1.273,6.175-1.273,6.175,0-.645,1.8-2.488,3.41-3.687,1.093-.812,1.932-1.539,2.359-1.923a5.452,5.452,0,0,0,2.019,1.537c1.244.5,1.567,4.481,1.567,4.481C2724.11,771,2723.779,766.515,2722.848,765.409Z" transform="translate(-2580.27 -722.852)" fill="#212121"/><path d="M2712.364,1394.176l1.4,5.905,2.1-.012.077-5.893Z" transform="translate(-2579.125 -1275.253)" fill="#e7b2b6"/><path d="M2863.442,1394.176l2.985,5.905,2.1-.012-.969-5.893Z" transform="translate(-2711.784 -1275.253)" fill="#e7b2b6"/><path d="M2714.831,1438.317a2.341,2.341,0,0,0-2.467,2.314h4.857A2.255,2.255,0,0,0,2714.831,1438.317Z" transform="translate(-2579.124 -1314.01)" fill="#ff7657"/><path d="M2880.948,1438.317a2.341,2.341,0,0,0-2.467,2.314h4.857A2.256,2.256,0,0,0,2880.948,1438.317Z" transform="translate(-2724.989 -1314.01)" fill="#ff7657"/><path d="M2681.012,1093.314h-5.634c-4.434-20.152-4.789-31.863-4.305-38.147.35-4.551,1.14-6.254,1.14-6.254h8.768S2681.219,1093.314,2681.012,1093.314Z" transform="translate(-2542.724 -972.083)" fill="#393939"/><path d="M2740.1,1093.379h-5.854s-7.474-15.325-12.579-28.809c-2.325-6.142-4.159-11.9-4.57-15.657h9.892S2738.882,1086.73,2740.1,1093.379Z" transform="translate(-2583.28 -972.083)" fill="#343434"/><path d="M2766.258,1166.626s-7.474-15.325-12.579-28.809c-.146-1.869-.39-4.554.783-5.487C2754.461,1132.33,2766.915,1155.387,2766.258,1166.626Z" transform="translate(-2615.292 -1045.33)" fill="#212529"/><path d="M2679.043,1138.361h-3.664c-4.434-20.152-4.789-31.863-4.305-38.147C2672.173,1105.814,2678.458,1137.724,2679.043,1138.361Z" transform="translate(-2542.724 -1017.129)" fill="#212529"/><path d="M2701.746,852.279s-2.988,2.752-3.3,3.226a2.187,2.187,0,0,0-.407-.287,33.051,33.051,0,0,1-2.609,8.433c-1.209,2.7-.145,4.373-.145,4.373s-5.339.58-7.089.552-6.943-.77-6.943-.77c.05-.113.1-.226.147-.336.789-1.809,1.361-3.242,1.756-4.435a9.517,9.517,0,0,0-.037-7.369c-.513-1.55-.395-4.5-.227-6.534a5.054,5.054,0,0,0-1.277-1.756,5.705,5.705,0,0,0,1.1-1.569c.14-.242.284-.5.426-.752.661-1.191,1.274-2.393,1.274-2.393a14.973,14.973,0,0,0,2.273,1.3,1.754,1.754,0,0,1,1.378.382.474.474,0,0,0,.286,0,2.877,2.877,0,0,0,2.606,1.521,3.449,3.449,0,0,0,2.336-.959c.383.093.74.193,1.07.295a14.3,14.3,0,0,1,3.2.8C2698.922,846.853,2701.746,852.279,2701.746,852.279Z" transform="translate(-2551.808 -790.977)" fill="#ff7657"/><path d="M2768.374,1042.686l-.214.389a2.943,2.943,0,0,0-3.7-.009s-.773.669-.08.986.478.1,1.443.57a2.766,2.766,0,0,0,2.7.025l.677-.521Z" transform="translate(-2624.541 -966.37)" fill="#e7b2b6"/><path d="M2683.438,890.129a4.482,4.482,0,0,1-.973-.009c.789-1.809,1.361-3.242,1.755-4.435a9.519,9.519,0,0,0-.037-7.369c-.514-1.55-.395-4.5-.227-6.534a5.055,5.055,0,0,0-1.277-1.756,5.7,5.7,0,0,0,1.1-1.569,8.649,8.649,0,0,1,1.146,2.677c-.062.677-.485,5.039.717,6.79S2687.448,889.754,2683.438,890.129Z" transform="translate(-2552.871 -813.626)" fill="#eb6f53"/><path d="M2207.5,531.634l.121-1.484a1.238,1.238,0,0,0-.175-1.1,4.763,4.763,0,0,1-.746-4.887s.625-1.246,1.275-.437.3.6,1.237,1.717a4.407,4.407,0,0,1,.676,3.541l-.415,1.624Z" transform="translate(-2134.782 -510.687)" fill="#d4b6b8"/><path d="M2590.2,598.209l.348-1.374a1.179,1.179,0,0,0,.009-1.056,4.534,4.534,0,0,1,.071-4.707s.784-1.072,1.267-.209.187.607.891,1.807a4.2,4.2,0,0,1,.076,3.431l-.646,1.459Z" transform="translate(-2471.611 -569.58)" fill="#d4b6b8"/><path d="M2304.7,1428.141c-3.665-.158-3.8,3.568-3.8,3.568h7.492S2308.368,1427.982,2304.7,1428.141Z" transform="translate(-2217.822 -1305.073)" fill="#ff7657"/><path d="M2437.531,1428.141c-3.665-.158-3.8,3.568-3.8,3.568h7.491S2441.195,1427.982,2437.531,1428.141Z" transform="translate(-2334.456 -1305.073)" fill="#ff7657"/><path d="M2374.932,731.492a.082.082,0,0,1-.079-.083c.027-2.109.027-4.015.027-4.015l-6.207-1.014a34.321,34.321,0,0,0-.2,5.055.073.073,0,0,1-.072.074c-.326,0,6.715-.01,6.531-.017Z" transform="translate(-2277.085 -688.871)" fill="#d4b6b8"/><path d="M2356.443,659.2s-4.144-6.533,3.813-6.965c0,0,2.984.351,3.66-.324a7.3,7.3,0,0,1,.153,7.289C2361.907,662.968,2356.443,659.2,2356.443,659.2Z" transform="translate(-2265.648 -623.477)" fill="#212121"/><path d="M2371.025,683.238a8.526,8.526,0,0,1-2.883,1,23.047,23.047,0,0,1-3.1-.872c-.738-.447-.691-1.353-.729-2.612a19.691,19.691,0,0,1-.029-3.52c.2-1.028.85-1.613,2.674-1.772,3.349-.291,4.745.548,4.8,1.671.015.3.029.589.039.861C2371.936,681.5,2371.659,682.738,2371.025,683.238Z" transform="translate(-2273.414 -644.109)" fill="#dcb4b7"/><path d="M2440.053,653.9s6.02-2.8,13.194-5.236l5.628-9.912,2.115.287s-1.153,10.785-2.59,12.723c-3.385,4.561-14.139,11.407-14.139,11.407Z" transform="translate(-2340.012 -611.929)" fill="#e87a62"/><path d="M2311.778,995.889s-.085.784-.217,2.015c-.194,1.8-.489,4.545-.766,7.2-.3,2.872-.583,5.631-.7,6.945-.037.428-.127,1.309-.257,2.521l0,.042c-.893,8.336-3.607,32.061-3.607,32.061s-6.735.325-8.16,0c-1.045-.238,1.016-28.35,2.192-43.358.429-5.474.74-9.205.74-9.205l10.776,1.781Z" transform="translate(-2215.087 -923.959)" fill="#212121"/><path d="M2393.073,1001.13s3.583,52.9,2.158,53.236-8.16,0-8.16,0-3.556-34.341-3.846-37.8-1.7-14.484-1.7-14.484Z" transform="translate(-2288.617 -930.125)" fill="#212121"/><path d="M2243.9,613.669c1.084,8.78.354,9.718.354,9.718h-19.341a.062.062,0,0,1-.1,0c-.087-.105-.19-.536-.149-2.054.045-1.673.265-4.667.878-10a5.719,5.719,0,0,0,.033-.65,35.377,35.377,0,0,0-1.432-7.695c-.381-1.412-.775-2.73-1.089-3.743l-.132-.423c-3.432-2.894-9.431-13.407-9.431-13.407a40.551,40.551,0,0,1-1.582-7.522,28.171,28.171,0,0,1,.1-8.679l2.694-1.585c2.088,5.879,3.627,15.77,3.627,15.77,4.614,3.054,10.5,7.956,10.511,7.968l.036,0,.024,0c.6-.088,1.2-.164,1.915-.228a5.837,5.837,0,0,0,3.567.779,5.615,5.615,0,0,0,2.835-.765,32.049,32.049,0,0,1,6.048,1.187l3.076,3.744s-2.759,14.993-2.438,17.6Z" transform="translate(-2139.441 -549.469)" fill="#eb6f53"/><path d="M2211.72,610.4c0,.041,0,.082,0,.124l.263,4.926a40.532,40.532,0,0,0,1.581,7.522s6,10.512,9.431,13.407q.062.2.128.41l0,.013c.314,1.013.708,2.331,1.089,3.743h0a35.376,35.376,0,0,1,1.432,7.695h0a5.718,5.718,0,0,1-.033.65c-.612,5.336-.833,8.331-.878,10l.149,2.054a20.463,20.463,0,0,0,4.323-.437c1.164-.439-1.732-11.276-1.894-12.737s-2.912-12.25-2.912-12.25h0a3.124,3.124,0,0,0-.252-.892c-.568-1.46-7.95-11.2-8.924-11.889-.932-.664-3.307-11.436-3.5-12.342Z" transform="translate(-2139.512 -587.03)" fill="#ff7657"/><path d="M2311.778,1025.741v6.952a2.054,2.054,0,0,0-.983.456,1,1,0,0,0-.309.546c-.162.835-.644,9.2-.644,9.2l0,.043c-.893,8.583-3.607,33.009-3.607,33.009s-6.735.335-8.16,0c-1.045-.245,1.016-29.188,2.192-44.639l.3-5.6,11,.031Z" transform="translate(-2215.087 -951.708)" fill="#212121"/><path d="M2326.766,1034.69a5.154,5.154,0,0,0,4.558-2.487,5.38,5.38,0,0,1-4.674,2.311l0,.175Z" transform="translate(-2240.431 -957.41)" fill="#212121"/><path d="M2301.039,1099.336a140.435,140.435,0,0,0,2.219-14.143c.083-.78.163-1.583.237-2.385.083-.885.16-1.782.23-2.664a3.474,3.474,0,0,0-.13-.985,3.354,3.354,0,0,1-.125-.9c.24-3.354.3-6.42.346-9.125q.02-1.064.042-2.085c.141-6.151.245-9.638.248-9.672,0,.034-.328,3.512-.469,9.672q-.023,1.022-.042,2.085c-.05,2.7-.106,5.765-.346,9.114a3.476,3.476,0,0,0,.13.956,3.344,3.344,0,0,1,.126.922c-.07.882-.147,1.777-.23,2.661-.075.8-.155,1.6-.237,2.383-.541,5.1-1.182,10.035-2.063,14.166Z" transform="translate(-2217.889 -979.519)" fill="#212529"/><path d="M2353.081,762.261h0l-.024,0c.509.816,2.13,3.32,2.848,3.32a.249.249,0,0,0,.141-.041c.651-.434-2.193-2.443-2.964-3.283Z" transform="translate(-2263.622 -720.377)" fill="none"/><path d="M2365.708,768.574a23.48,23.48,0,0,0,2.136,2.027.1.1,0,0,0,.027,0,13.387,13.387,0,0,0,2.3-1.281,2.763,2.763,0,0,1-.573.052,15.614,15.614,0,0,1-3.895-.8Z" transform="translate(-2274.73 -725.921)" fill="none"/><path d="M2019.19,947.762l-71.381-25.489a4.629,4.629,0,0,1-2.8-5.916l12.479-34.947a4.629,4.629,0,0,1,5.916-2.8l71.381,25.489a4.629,4.629,0,0,1,2.8,5.916l-12.479,34.947A4.629,4.629,0,0,1,2019.19,947.762Z" transform="translate(-1905.08 -822.302)" fill="#e9e9e9"/><path d="M2037.586,910.012l-12.479,34.947a4.628,4.628,0,0,1-5.916,2.8l-71.381-25.489a4.628,4.628,0,0,1-2.8-5.916l12.479-34.947a4.628,4.628,0,0,1,5.916-2.8l71.381,25.489A4.628,4.628,0,0,1,2037.586,910.012Z" transform="translate(-1905.081 -822.302)" fill="#212121"/><g transform="translate(55.15 61.77)"><path d="M2072.083,927.922a3.8,3.8,0,0,1,4.938-2.3,4.061,4.061,0,0,1,2.4,1.932l-1.381.82a2.724,2.724,0,0,0-1.569-1.357,2.341,2.341,0,0,0-1.461,4.437,2.6,2.6,0,0,0,1.592.1l.355-.995-1.542-.551.473-1.323,3.025,1.08-1.08,3.025a4.8,4.8,0,0,1-3.37.042A3.706,3.706,0,0,1,2072.083,927.922Z" transform="translate(-2071.833 -925.382)" fill="#fff"/><path d="M2133.258,941.607l1.533.547-2.487,6.965-1.532-.547Z" transform="translate(-2123.586 -939.629)" fill="#fff"/><path d="M2160.109,951.195l5.3,1.894-.5,1.393-3.771-1.346-.529,1.483,3.323,1.187-.5,1.393-3.323-1.187-.963,2.7-1.532-.547Z" transform="translate(-2147.163 -948.048)" fill="#fff"/><path d="M2225.463,971.026l-2.119-.757.5-1.413,5.771,2.061-.5,1.413-2.119-.757-1.983,5.552-1.532-.547Z" transform="translate(-2204.873 -963.556)" fill="#fff"/></g><path d="M2339.488,1278.76l-10.877-.9-1.917-.684,1.017-12.348,12.836,1.058Z" transform="translate(-2240.473 -1161.678)" fill="#fff"/><path d="M2376.664,1383.956l-7.36-2.628,7.525.62Z" transform="translate(-2277.889 -1263.972)" fill="#fff"/><rect width="12.914" height="12.88" transform="translate(100.11 117.172) rotate(-85.291)" fill="#fff"/><path d="M2451.01,1393.94l-12.553-4.483.189-2.3,12.836,1.057Z" transform="translate(-2338.61 -1269.09)" fill="#fff"/><path d="M2359.2,1194.905l-2.856-8.743s-.46-1.148-3.429-.282-5.7,2.552-5.207,3.332S2359.558,1197.277,2359.2,1194.905Z" transform="translate(-2258.874 -1092.068)" fill="#fff"/><path d="M2445.934,1200.938l4.248-8.158s.642-1.057,3.429.282,5.2,3.449,4.591,4.139S2445.191,1203.22,2445.934,1200.938Z" transform="translate(-2345.147 -1098.063)" fill="#fff"/><path d="M2394.319,1255.372l-5.989-1.927.254.788-.529.623Z" transform="translate(-2294.353 -1151.68)" fill="#fff"/><path d="M2450.911,1263.561l6.224-.921-.379.736.42.7Z" transform="translate(-2349.546 -1159.754)" fill="#fff"/><rect width="4.165" height="4.176" transform="matrix(0.998, -0.062, 0.062, 0.998, 115.458, 97.963)" fill="#ff7657"/><rect width="4.165" height="4.206" transform="matrix(0.998, -0.063, 0.063, 0.998, 115.738, 102.421)" fill="#ff7657"/><rect width="4.165" height="4.176" transform="translate(119.97 97.681) rotate(-3.583)" fill="#ff7657"/><rect width="4.165" height="4.206" transform="matrix(0.998, -0.063, 0.063, 0.998, 120.249, 102.138)" fill="#ff7657"/><path d="M2572.131,1196.257l-1.322-2.664s-.2-.346-1.111.069-1.7,1.082-1.511,1.309S2572.356,1197,2572.131,1196.257Z" transform="translate(-2452.5 -1099.005)" fill="#ff7657"/><path d="M2601.94,1194.773l.979-2.809s.156-.368,1.111-.07,1.826.861,1.662,1.11S2601.808,1195.537,2601.94,1194.773Z" transform="translate(-2482.159 -1097.53)" fill="#ff7657"/><path d="M2585.513,1216.372l-2.006-.337.118.24-.14.224Z" transform="translate(-2465.957 -1118.83)" fill="#ff7657"/><path d="M2603.84,1214.355l1.948-.585-.087.253.167.2Z" transform="translate(-2483.831 -1116.842)" fill="#ff7657"/><rect width="8.306" height="8.284" transform="translate(66.007 103.504) rotate(-60.454)" fill="#ff7657"/><path d="M2151.58,1275.91l-1.256,2.215-7.919-2.828,1.968-3.472Z" transform="translate(-2078.65 -1167.819)" fill="#ff7657"/><rect width="8.306" height="8.284" transform="translate(73.829 107.937) rotate(-60.454)" fill="#ff7657"/><path d="M2221.3,1312.273l-.482.852-7.92-2.828,1.195-2.108Z" transform="translate(-2140.554 -1199.749)" fill="#ff7657"/><path d="M2220.593,1184.829l.7-5.875s.042-.794-1.925-1.091-4.015-.05-3.939.538S2220.162,1186.311,2220.593,1184.829Z" transform="translate(-2142.766 -1085.201)" fill="#ff7657"/><path d="M2259.332,1210.657l4.684-3.614s.66-.444,1.925,1.091,2.1,3.419,1.562,3.656S2258.282,1211.788,2259.332,1210.657Z" transform="translate(-2181.245 -1110.882)" fill="#ff7657"/><path d="M2228.9,1219.458l-2.975-2.743-.065.528-.477.221Z" transform="translate(-2151.509 -1119.427)" fill="#ff7657"/><path d="M2260.671,1242.862l3.881,1.144-.42.327.056.523Z" transform="translate(-2182.499 -1142.387)" fill="#ff7657"/><g transform="translate(51.979 70.672)"><path d="M2046.061,1000.946a3.759,3.759,0,0,1,4.918-2.305,3.72,3.72,0,0,1,2.291,2.1l-1.292.728a2.559,2.559,0,0,0-1.514-1.416,2.332,2.332,0,0,0-1.563,4.378,2.669,2.669,0,0,0,2.122-.162l.6,1.393a3.939,3.939,0,0,1-5.564-4.713Z" transform="translate(-2045.822 -998.395)" fill="#fff"/><path d="M2100.934,1019.748l1.413.5.48,8.081-1.6-.572-.079-1.79-2.945-1.052-1.195,1.335-1.562-.558Zm.148,4.675-.119-2.589-1.732,1.928Z" transform="translate(-2089.395 -1017.145)" fill="#fff"/><path d="M2167.305,1036.185l3.184,1.137a2.946,2.946,0,0,1,1.778,1.431,2.34,2.34,0,0,1,.021,1.825,2.3,2.3,0,0,1-2.264,1.626l.813,3.1-1.791-.639-.717-2.769-1.184-.423-.8,2.229-1.532-.547Zm1.876,4.485a1.078,1.078,0,0,0,1.533-.586c.235-.657-.1-1.158-.848-1.425l-1.523-.544-.714,2Z" transform="translate(-2150.311 -1031.578)" fill="#fff"/><path d="M2226.313,1057.256l2.716.97a3.7,3.7,0,1,1-2.487,6.965l-2.716-.97Zm.723,6.552a2.229,2.229,0,0,0,1.5-4.2l-1.184-.423-1.5,4.2Z" transform="translate(-2202.125 -1050.08)" fill="#fff"/></g><path d="M2131.206,889.321a1.983,1.983,0,0,1,1.705-.392c.922.276,1.427,1.236,1.335,1.482s-1.128.353-1.612,0S2131.9,889.564,2131.206,889.321Z" transform="translate(-2068.817 -831.545)" fill="#e7b2b6"/></g></g></svg>