<svg xmlns="http://www.w3.org/2000/svg" width="173.468" height="158.109" viewBox="0 0 173.468 158.109"><g transform="translate(-50.799 -48.405)"><g transform="translate(55.524 48.405)"><path d="M97.426,172.491a6.613,6.613,0,0,0-7.605-5.771,9.47,9.47,0,0,0-16.718-.508,6.478,6.478,0,0,0-7.7,5.647,3.977,3.977,0,1,0,3.467,6.473c.084.044.17.084.257.124a5.213,5.213,0,0,0,9.194,1.454c.217.073.438.134.662.191a6.283,6.283,0,0,0,9.643-.5,6.618,6.618,0,0,0,5.819-.7,3.546,3.546,0,1,0,2.985-6.407Z" transform="translate(-61.809 -112.928)" fill="#fff"/><path d="M245.985,58.754a6.191,6.191,0,0,0-7.121-5.4,8.867,8.867,0,0,0-15.653-.476A6.067,6.067,0,0,0,216,58.162a3.723,3.723,0,1,0,3.246,6.06c.079.041.159.079.24.116a4.881,4.881,0,0,0,8.608,1.361c.2.068.41.125.62.179a5.883,5.883,0,0,0,9.029-.466,6.2,6.2,0,0,0,5.448-.659,3.32,3.32,0,1,0,2.795-6Z" transform="translate(-147.907 -48.405)" fill="#fff"/><path d="M408.943,202.354a5.77,5.77,0,0,0-6.637-5.036,8.264,8.264,0,0,0-14.588-.443A5.654,5.654,0,0,0,381,201.8a3.47,3.47,0,1,0,3.026,5.648c.073.038.148.073.224.108a4.549,4.549,0,0,0,8.023,1.269c.189.063.382.117.577.167a5.484,5.484,0,0,0,8.415-.435,5.777,5.777,0,0,0,5.078-.614,3.095,3.095,0,1,0,2.6-5.591Z" transform="translate(-242.223 -130.779)" fill="#fff"/></g><ellipse cx="85.49" cy="9.615" rx="85.49" ry="9.615" transform="translate(50.799 187.284)" fill="#efefef"/><g transform="translate(88.352 79.981)"><g transform="translate(0 0)"><rect width="95.874" height="117.568" rx="10.679" fill="#0f0f0f"/><rect width="93.299" height="114.993" rx="7.679" transform="translate(1.287 1.287)" fill="#424242"/><rect width="80.431" height="101.349" transform="translate(5.433 10.358)" fill="#bdbdc1"/><rect width="80.431" height="101.349" transform="translate(7.721 8.27)" fill="#fff"/><g transform="translate(18.471 19.618)"><path d="M198.154,184.506H181.34V167.692h16.814Zm-16.1-.716h15.382V168.408H182.056Z" transform="translate(-181.34 -167.692)" fill="#bfbfc1"/><rect width="26.817" height="1.774" transform="translate(25.682 5.145)" fill="#bfbfc1"/><rect width="26.817" height="1.774" transform="translate(25.682 9.895)" fill="#bfbfc1"/><g transform="translate(0 31.949)"><path d="M198.154,258.951H181.34V242.137h16.814Zm-16.1-.716h15.382V242.853H182.056Z" transform="translate(-181.34 -242.137)" fill="#bfbfc1"/><rect width="26.817" height="1.774" transform="translate(25.682 5.145)" fill="#bfbfc1"/><rect width="26.817" height="1.774" transform="translate(25.682 9.895)" fill="#bfbfc1"/></g><g transform="translate(0 63.898)"><path d="M198.154,333.4H181.34V316.582h16.814Zm-16.1-.716h15.382V317.3H182.056Z" transform="translate(-181.34 -316.582)" fill="#bfbfc1"/><rect width="26.817" height="1.774" transform="translate(25.682 5.145)" fill="#bfbfc1"/><rect width="26.817" height="1.774" transform="translate(25.682 9.895)" fill="#bfbfc1"/></g></g></g><path d="M185.947,174.7c3.067,1.362,5.575,5.84,5.575,5.84s5.229-9.373,11.029-11.693l-2.226-1.986s-7.261,5.626-8.558,11.5c0,0-2.153-4.487-4.753-6.092Z" transform="translate(-165.499 -147.598)" fill="#eb6f53"/><path d="M185.947,251.228c3.067,1.362,5.575,5.84,5.575,5.84s5.229-9.373,11.029-11.693l-2.226-1.986s-7.261,5.626-8.558,11.5c0,0-2.153-4.487-4.753-6.092Z" transform="translate(-165.499 -191.284)" fill="#eb6f53"/></g><g transform="translate(66.272 132.793)"><g transform="translate(0 10.182)"><path d="M133.463,276.915,91.538,311.3a2.042,2.042,0,0,1-2.876-.285l-1.345-1.64A2.043,2.043,0,0,1,87.6,306.5l41.926-34.384Z" transform="translate(-86.853 -270.675)" fill="#424242"/><path d="M186.286,270.2l7.111-1.439L190.224,275Z" transform="translate(-143.613 -268.762)" fill="#ffd694"/><path d="M192.463,273.433l4.46-4.671L193.75,275Z" transform="translate(-147.139 -268.762)" fill="#e8b770"/><path d="M195.46,269.4l3.174-.642L197.24,271.5Z" transform="translate(-148.85 -268.762)" fill="#424242"/><path d="M134.191,279.646h0L90.38,314.954l.295.359a2.042,2.042,0,0,0,2.876.285l41.926-34.383Z" transform="translate(-88.866 -274.975)" fill="#262626"/></g><path d="M104.033,321.406s-.028.139-.075.4a52.62,52.62,0,0,0-.46,15c1.031,7.734-.707,16.955-.707,16.955l2.993.185s1.682-5.4,2.828-11.322a108.206,108.206,0,0,0,1.357-14.317l.989.142s3.04,17.418,1.684,24.4l2.839-.426s4.173-15.641.744-28.563" transform="translate(-95.951 -288.631)" fill="#232323"/><path d="M103.958,321.805a52.62,52.62,0,0,0-.46,15c1.031,7.734-.707,16.955-.707,16.955l1.714.106a94.538,94.538,0,0,0,1.687-16.192,91.4,91.4,0,0,1,1.126-15l-1.623-.94-1.662-.335S104,321.545,103.958,321.805Z" transform="translate(-95.951 -288.631)" fill="#3a3a3a"/><path d="M114.232,273.253a39.16,39.16,0,0,0-8.547,20.666s8.564,4.036,13.672,2.056c0,0,.344-7.79.279-9.467,0,0,8.766,3.458,15.074-1.246a3.876,3.876,0,0,0-.616-2.217s-10.38,3.094-14.547-3.733c0,0-.97-3.505-2.414-4.157A14.491,14.491,0,0,1,114.232,273.253Z" transform="translate(-97.603 -261.144)" fill="#eb6f53"/><path d="M114.231,273.252a39.164,39.164,0,0,0-8.546,20.666,32.62,32.62,0,0,0,3.285,1.275,49.634,49.634,0,0,1,6.347-21.109C114.676,273.633,114.231,273.252,114.231,273.252Z" transform="translate(-97.603 -261.143)" fill="#e87967"/><circle cx="6.375" cy="6.375" r="6.375" transform="matrix(0.291, -0.957, 0.957, 0.291, 13.033, 12.266)" fill="#ffd694"/><path d="M127.011,256.565a7.566,7.566,0,0,1,3.845-6.587,6.383,6.383,0,1,0-2.066,11.459A7.539,7.539,0,0,1,127.011,256.565Z" transform="translate(-106.288 -247.229)" fill="#e8b770"/><path d="M129.65,248.3s.354,4.259-3.241,5.792c-3.832,1.635-2.086,5.291-1.023,6.222,0,0-9.491-2.576-7.18-9.879,2.518-7.958,11.112-5.567,12.686-2.639,1.235,2.3.743,3.42.743,3.42A5.611,5.611,0,0,0,129.65,248.3Z" transform="translate(-104.543 -245.037)" fill="#333"/><path d="M171.88,292.4s2.368-3.39,2.622-2.658-.6,2.341-.6,2.341a6.96,6.96,0,0,0,3.547-1.489s-1.232,5.032-4.952,4.023A5.436,5.436,0,0,0,171.88,292.4Z" transform="translate(-135.389 -270.495)" fill="#ffd694"/><path d="M128.237,393.614s4.257-.532,4.766,1.813-7.865.659-7.865.659l.26-2.046Z" transform="translate(-108.707 -329.821)" fill="#282828"/><path d="M104.788,396.987s4.669,2.137,3.741,3.477-7.484,0-7.484,0l.749-3.662Z" transform="translate(-94.955 -331.67)" fill="#282828"/><path d="M128.919,292.861c-.105,3.1,3.979,4.84,3.979,4.84s8.766,3.458,15.074-1.246c0,0-.075-.49-.137-.925C138.48,300.712,128.919,292.861,128.919,292.861Z" transform="translate(-110.865 -272.337)" fill="#ea8675"/><path d="M173.133,299a3.416,3.416,0,0,0,3.9-1.678,5.662,5.662,0,0,1-4.037.752v0A4.609,4.609,0,0,1,173.133,299Z" transform="translate(-136.026 -274.886)" fill="#e8b770"/><g transform="translate(14.018 38.285)"><path d="M119.516,335.639l.989.142s3.04,17.418,1.684,24.4l1.314-.2c2.045-10.038-.291-25.737-.291-25.737Z" transform="translate(-119.516 -334.245)" fill="#3a3a3a"/></g><path d="M103.509,396.908h0l-1.714-.106-.749,3.662s1.606.328,3.34.5A4.057,4.057,0,0,1,103.509,396.908Z" transform="translate(-94.955 -331.67)" fill="#79797a"/><path d="M126.712,394.216l-1.314.2-.26,2.046s1.131.227,2.535.4A6.5,6.5,0,0,1,126.712,394.216Z" transform="translate(-108.707 -330.194)" fill="#79797a"/><path d="M125.278,260.812c-.075-.116-.155-.234-.248-.355l0-.005c-.056-.072-.112-.148-.167-.23a9.108,9.108,0,0,1-.725-9.022c-1.727.844-3.16,3.48-3.16,3.48a8.428,8.428,0,0,1,1.657-8.723,7.2,7.2,0,0,0-4.425,5.008C116.041,257.808,124.238,260.5,125.278,260.812Z" transform="translate(-104.543 -245.562)" fill="#050533"/></g><g transform="translate(167.975 154.968)"><path d="M356.435,328.938s8.564,5.285,10.573,20.37c0,0-10.468.626-11.918.444,0,0-.477-8.661-1.531-11.207,0,0-6.74,5.827-8.836,5.853s-7.846-5.654-7.846-5.654l2.67-1.765s5.139,3.9,6.187,3.362,4.7-6.977,7.55-8.121a3.484,3.484,0,0,0,.281-3.127Z" transform="translate(-331.278 -315.106)" fill="#eb6f53"/><g transform="translate(5.6 13.832)"><path d="M380.495,329.535s8.914,9.817,8.591,19.876c0,.018,0,.034,0,.052,1.6-.086,2.77-.155,2.77-.155-2.009-15.085-10.573-20.37-10.573-20.37l-.879.048Z" transform="translate(-361.722 -328.938)" fill="#ea7663"/><path d="M336.878,346.441s5.751,5.68,7.846,5.654,8.836-5.853,8.836-5.853l0,.011.108-.421s1.833-1.577,1.25-3.41c0,0-7.665,8.749-9.832,8.249-1.671-.386-5.223-3.694-6.762-5.188Z" transform="translate(-336.878 -336.635)" fill="#ea7663"/></g><circle cx="6.375" cy="6.375" r="6.375" transform="translate(11.414 9.015) rotate(-45)" fill="#ffd694"/><path d="M366.975,302.909a6.371,6.371,0,0,1-3.656,11.591c-.138,0-.272-.012-.407-.021a6.37,6.37,0,1,0,4.064-11.571Z" transform="translate(-346.139 -300.248)" fill="#e8b770"/><path d="M369.552,302.114a3.317,3.317,0,0,0-4.056-2.448c-2.463.562-5.608,2.656-6.326.488,0,0-1.653,1.351,0,3.911s5.667,3.688,7.452,2.255a4.251,4.251,0,0,0,.189,3.255,4.878,4.878,0,0,1,.389,3.293,5.463,5.463,0,0,0,5.021-4.327C373.163,304.517,370.8,301.923,369.552,302.114Z" transform="translate(-343.584 -298.332)" fill="#161616"/><path d="M329.43,344.58s-5.452.855-5.6.046,4.538-1.206,5.6-2.346.736-3.523,1.476-3.06,1.194,3.594,1.194,3.594Z" transform="translate(-323.83 -320.942)" fill="#ffd694"/><path d="M359.767,376.847l.091,1.031s-13.368-.141-14.584,2.563,3.183,6.228,9.728,6.229,15.844-.167,16.683-3.126,0-7.141,0-7.141Z" transform="translate(-335.956 -342.201)" fill="#0e0e54"/><path d="M339.025,343.973l1.749-1.156s-.454-3.132-1.194-3.594a.225.225,0,0,0-.337.038,5.2,5.2,0,0,1,.324,3.469A7.962,7.962,0,0,1,339.025,343.973Z" transform="translate(-332.504 -320.944)" fill="#e8b770"/><path d="M383.389,312.758l-1.916-2.652a10,10,0,0,1-.854,7.307,5.36,5.36,0,0,0,4.266-4.222,6.293,6.293,0,0,0-.991-5.489A9.188,9.188,0,0,1,383.389,312.758Z" transform="translate(-356.247 -302.984)" fill="#050533"/><path d="M371.725,376.4l-2.767.1c.6,1.922.769,3.9-.489,5.03-2.916,2.612-12.521,1.3-17.623,1.446a12.56,12.56,0,0,1-5.706-1.235c.378,2.41,4.374,4.922,9.9,4.923,6.545,0,15.844-.167,16.683-3.126S371.725,376.4,371.725,376.4Z" transform="translate(-335.995 -342.201)" fill="#050533"/></g></g></svg>